<?xml version="1.0" encoding="UTF-8" standalone="no"?>
<svg
   xmlns:dc="http://purl.org/dc/elements/1.1/"
   xmlns:cc="http://creativecommons.org/ns#"
   xmlns:rdf="http://www.w3.org/1999/02/22-rdf-syntax-ns#"
   xmlns:svg="http://www.w3.org/2000/svg"
   xmlns="http://www.w3.org/2000/svg"
   xmlns:sodipodi="http://sodipodi.sourceforge.net/DTD/sodipodi-0.dtd"
   xmlns:inkscape="http://www.inkscape.org/namespaces/inkscape"
   inkscape:version="1.0 (4035a4fb49, 2020-05-01)"
   sodipodi:docname="about-dark.svg"
   xml:space="preserve"
   style="enable-background:new 0 0 512 512;"
   viewBox="0 0 512 512"
   y="0px"
   x="0px"
   id="Capa_1"
   version="1.1"><metadata
   id="metadata43"><rdf:RDF><cc:Work
       rdf:about=""><dc:format>image/svg+xml</dc:format><dc:type
         rdf:resource="http://purl.org/dc/dcmitype/StillImage" /><dc:title></dc:title></cc:Work></rdf:RDF></metadata><defs
   id="defs41" /><sodipodi:namedview
   inkscape:current-layer="Capa_1"
   inkscape:window-maximized="1"
   inkscape:window-y="-8"
   inkscape:window-x="-8"
   inkscape:cy="256"
   inkscape:cx="256"
   inkscape:zoom="1.6601562"
   showgrid="false"
   id="namedview39"
   inkscape:window-height="1017"
   inkscape:window-width="1920"
   inkscape:pageshadow="2"
   inkscape:pageopacity="0"
   guidetolerance="10"
   gridtolerance="10"
   objecttolerance="10"
   borderopacity="1"
   bordercolor="#666666"
   pagecolor="#ffffff" />
<g
   id="g6">
	<g
   id="g4">
		<path
   id="path2"
   d="M256,0C114.844,0,0,114.844,0,256s114.844,256,256,256s256-114.844,256-256S397.156,0,256,0z M298.667,416    c0,5.896-4.771,10.667-10.667,10.667h-64c-5.896,0-10.667-4.771-10.667-10.667V256h-10.667c-5.896,0-10.667-4.771-10.667-10.667    v-42.667c0-5.896,4.771-10.667,10.667-10.667H288c5.896,0,10.667,4.771,10.667,10.667V416z M256,170.667    c-23.531,0-42.667-19.135-42.667-42.667S232.469,85.333,256,85.333s42.667,19.135,42.667,42.667S279.531,170.667,256,170.667z" />
	</g>
</g>
<g
   id="g8">
</g>
<g
   id="g10">
</g>
<g
   id="g12">
</g>
<g
   id="g14">
</g>
<g
   id="g16">
</g>
<g
   id="g18">
</g>
<g
   id="g20">
</g>
<g
   id="g22">
</g>
<g
   id="g24">
</g>
<g
   id="g26">
</g>
<g
   id="g28">
</g>
<g
   id="g30">
</g>
<g
   id="g32">
</g>
<g
   id="g34">
</g>
<g
   id="g36">
</g>
<path
   id="path868"
   d="m 220.82519,425.84038 c -2.04338,-0.61148 -4.93358,-3.20915 -6.14014,-5.5187 -0.7192,-1.37666 -0.84976,-14.11286 -0.84976,-82.89832 v -81.27177 l -6.77647,-0.27008 c -7.30705,-0.29124 -9.19255,-0.90346 -11.99143,-3.89361 -2.84249,-3.03676 -3.00821,-4.77499 -2.80467,-29.41849 0.18731,-22.67947 0.20175,-22.90985 1.5747,-25.11787 0.76211,-1.22565 2.38847,-2.85201 3.61412,-3.61412 l 2.22846,-1.38566 44.27294,-0.18257 c 30.43291,-0.1255 44.97058,0.0207 46.50462,0.46781 2.67631,0.77997 5.61536,3.13929 6.82525,5.47895 1.3044,2.52243 1.33581,219.61031 0.0322,222.10573 -1.27544,2.44138 -4.1061,4.89014 -6.41985,5.55372 -2.56615,0.73596 -67.60213,0.70346 -70.06991,-0.035 z"
   style="fill:none;stroke:#000000;stroke-width:0.602353" /><path
   id="path870"
   d="m 248.16941,169.60328 c -13.10869,-2.77859 -23.95128,-11.04186 -29.78841,-22.70208 -3.59318,-7.17772 -4.77267,-12.77494 -4.40908,-20.92297 0.50306,-11.27341 4.37645,-19.80733 12.7566,-28.105579 8.24607,-8.165472 17.58914,-11.993703 29.27148,-11.993703 11.68234,0 21.02541,3.828231 29.27148,11.993703 8.38015,8.298249 12.25354,16.832169 12.7566,28.105579 0.3667,8.21762 -0.81728,13.74601 -4.53685,21.184 -5.19444,10.38729 -15.72674,18.91826 -26.95005,21.82907 -5.11837,1.32746 -13.65476,1.61182 -18.37177,0.61198 z"
   style="fill:none;stroke:#000000;stroke-width:0.602353" /><path
   id="path872"
   d="M 244.55529,511.29912 C 187.67043,509.14215 131.59845,486.59694 87.943529,448.32924 37.751175,404.33086 7.2484864,344.24269 1.2203958,277.49071 0.39334749,268.33241 0.39415682,243.65969 1.2218063,234.49413 6.610482,174.81883 31.406808,120.56257 72.551105,78.420185 86.267603,64.370947 98.533749,54.014004 112.94118,44.316752 149.88193,19.452929 189.9216,5.2667714 234.61647,1.2068873 c 9.3058,-0.84529742 33.46126,-0.84529742 42.76706,0 54.86548,4.9837372 104.33094,25.8815337 145.76941,61.5835697 8.98065,7.737435 24.04405,23.308288 31.36684,32.423533 32.6601,40.65454 51.54824,87.36748 56.24488,139.1013 0.34588,3.80989 0.62887,13.568 0.62887,21.68471 0,8.11671 -0.28299,17.87482 -0.62887,21.68471 -4.78548,52.71237 -24.73505,101.13361 -58.44395,141.85411 -7.30926,8.82963 -26.8241,28.06562 -35.49247,34.98534 -27.64462,22.06788 -57.27498,37.60902 -89.44942,46.91627 -27.42429,7.93314 -53.07683,10.98663 -82.82353,9.85869 z m 47.91198,-85.3631 c 2.98379,-1.35535 5.53295,-4.2746 5.99617,-6.86669 0.19067,-1.06696 0.26922,-51.15822 0.17456,-111.31392 l -0.17212,-109.37399 -1.6876,-2.21252 c -3.50616,-4.5967 -0.18294,-4.31021 -51.01828,-4.39828 -25.01271,-0.0434 -44.52894,0.1393 -43.36941,0.40586 2.09268,0.48108 2.08824,0.4844 -0.60235,0.44967 -1.49083,-0.0192 -3.14688,0.001 -3.68012,0.0459 -1.40954,0.1176 -4.90703,3.9036 -5.74645,6.22047 -0.93689,2.58589 -1.09949,46.11447 -0.18457,49.40878 0.34218,1.23206 1.32166,3.07144 2.17662,4.08751 2.6249,3.11952 4.24813,3.61119 11.92225,3.61119 h 6.95697 v 81.27843 c 0,56.10822 0.19896,81.80356 0.64248,82.97412 0.91362,2.41132 2.89476,4.39071 5.68223,5.67721 2.25244,1.03957 4.62665,1.11202 36.44235,1.11202 31.73224,0 34.19751,-0.0747 36.46727,-1.10576 z M 267.14353,169.5299 c 14.73312,-3.88951 27.19234,-16.71616 30.68611,-31.59108 1.3199,-5.61955 1.20627,-15.01963 -0.25042,-20.71523 -3.77693,-14.76767 -15.78427,-26.822744 -30.73687,-30.859044 -5.3309,-1.439022 -16.3538,-1.439022 -21.6847,0 -12.17185,3.285666 -22.19684,11.588487 -27.7254,22.962514 -3.06334,6.30227 -4.1815,11.29555 -4.1815,18.67294 0,6.91466 1.00941,11.85949 3.5768,17.52174 5.97279,13.17273 17.79272,22.35197 32.0873,24.91872 4.20216,0.75455 13.72288,0.27896 18.22868,-0.91056 z"
   style="fill:#ffffff;stroke:#000000;stroke-width:0.602353" /></svg>
