<?xml version="1.0" encoding="UTF-8" standalone="no"?>
<svg
   xmlns:dc="http://purl.org/dc/elements/1.1/"
   xmlns:cc="http://creativecommons.org/ns#"
   xmlns:rdf="http://www.w3.org/1999/02/22-rdf-syntax-ns#"
   xmlns:svg="http://www.w3.org/2000/svg"
   xmlns="http://www.w3.org/2000/svg"
   xmlns:sodipodi="http://sodipodi.sourceforge.net/DTD/sodipodi-0.dtd"
   xmlns:inkscape="http://www.inkscape.org/namespaces/inkscape"
   inkscape:version="1.0 (4035a4fb49, 2020-05-01)"
   sodipodi:docname="cib-codewars-dark.svg"
   id="svg22"
   version="1.1"
   stroke="#FFFFFF"
   fill="#000000"
   viewBox="0 0 32 32"
   height="32"
   width="32">
  <metadata
     id="metadata28">
    <rdf:RDF>
      <cc:Work
         rdf:about="">
        <dc:format>image/svg+xml</dc:format>
        <dc:type
           rdf:resource="http://purl.org/dc/dcmitype/StillImage" />
        <dc:title></dc:title>
      </cc:Work>
    </rdf:RDF>
  </metadata>
  <defs
     id="defs26" />
  <sodipodi:namedview
     inkscape:current-layer="svg22"
     inkscape:window-maximized="1"
     inkscape:window-y="-8"
     inkscape:window-x="1912"
     inkscape:cy="22.023529"
     inkscape:cx="16"
     inkscape:zoom="26.5625"
     showgrid="false"
     id="namedview24"
     inkscape:window-height="1017"
     inkscape:window-width="1920"
     inkscape:pageshadow="2"
     inkscape:pageopacity="0"
     guidetolerance="10"
     gridtolerance="10"
     objecttolerance="10"
     borderopacity="1"
     bordercolor="#666666"
     pagecolor="#ffffff" />
  <path
     id="path20"
     d="M1.016 16.266l-0.109-0.052c-0.24-0.135-0.427-0.333-0.557-0.589-0.188-0.344-0.271-0.667-0.271-1l0.026-0.172c0-0.266 0.068-0.505 0.188-0.734l0.109-0.198c0.052-0.109 0.13-0.203 0.198-0.292 0.083-0.094 0.094-0.214 0.068-0.323l-0.068-0.214c-0.078-0.266-0.13-0.531-0.13-0.797l-0.042-0.161c0-0.297 0.078-0.589 0.266-0.802l0.135-0.172c0.094-0.135 0.24-0.214 0.401-0.266 0.13-0.042 0.224-0.177 0.24-0.333l0.026-0.453c0-0.359 0.172-0.693 0.438-0.938l0.323-0.24c0.063-0.063 0.13-0.13 0.182-0.24 0.068-0.078 0.083-0.188 0.068-0.266-0.026-0.13 0-0.172 0.068-0.188 0.214 0.083 0.349 0.057 0.443-0.052l0.172-0.224 0.479-0.536c0.135-0.13 0.188-0.375 0.104-0.557l-0.156-0.349c-0.026-0.078 0-0.172 0.068-0.198 0.172 0 0.292 0.063 0.344 0.172l0.052 0.094c0.083 0.161 0.271 0.24 0.401 0.172 0.292-0.104 0.536-0.13 0.76-0.13h0.427c0.292 0 0.531-0.203 0.589-0.51 0.052-0.37 0.182-0.667 0.37-0.865 0.203-0.229 0.427-0.401 0.693-0.536 0.349-0.182 0.563-0.453 0.63-0.797 0.094-0.427 0.318-0.734 0.625-0.932l1.016-0.573 0.292-0.177c0.172-0.104 0.333-0.24 0.469-0.401l0.266-0.318c0.13-0.135 0.266-0.224 0.427-0.266 0.13-0.042 0.318-0.068 0.479-0.052l0.531 0.036c0.266 0 0.479 0.068 0.693 0.161l0.135 0.068c0.135 0.052 0.266 0.026 0.333-0.068l0.12-0.068 0.573-0.599c0.135-0.135 0.292-0.188 0.469-0.161 0.172 0.026 0.344 0.094 0.505 0.177 0.24 0.13 0.438 0.182 0.667 0.182h0.135c0.292 0 0.583 0.042 0.88 0.109l0.198 0.052c0.198 0.052 0.401-0.026 0.531-0.188 0.042-0.068 0.135-0.078 0.188-0.026 0.042 0.026 0.052 0.052 0.068 0.094 0.026 0.266 0.188 0.469 0.401 0.531l0.214 0.068c0.224 0.068 0.427 0.214 0.557 0.401 0.135 0.198 0.297 0.401 0.479 0.531l0.135 0.135c0.135 0.135 0.318 0.188 0.505 0.172h0.786c0.323 0 0.63 0.057 0.938 0.188 0.292 0.135 0.599 0.161 0.875 0.052 0.297-0.089 0.604-0.13 0.911-0.089l0.573 0.089c0.266 0.031 0.531 0.161 0.693 0.365l0.068 0.063c0.13 0.135 0.266 0.307 0.396 0.495 0.083 0.172 0.271 0.266 0.453 0.266h0.828c0.203 0 0.401 0.042 0.563 0.135 0.172 0.13 0.318 0.266 0.453 0.401l0.13 0.172c0.161 0.188 0.24 0.438 0.229 0.708 0 0.214 0.161 0.396 0.37 0.396l0.271 0.031c0.188 0 0.344 0.13 0.438 0.302l0.135 0.271 0.344 0.771c0.057 0.135 0.068 0.266 0.057 0.375 0 0.13 0.036 0.24 0.13 0.292l0.135 0.094c0.172 0.135 0.266 0.333 0.24 0.563l-0.094 0.625-0.026 0.266c-0.026 0.135 0.036 0.307 0.161 0.401 0.198 0.13 0.292 0.307 0.302 0.505v0.266c0 0.135-0.026 0.297-0.13 0.401-0.083 0.109-0.135 0.24-0.135 0.401l0.042 0.307c0 0.214 0.13 0.401 0.266 0.531 0.188 0.135 0.292 0.349 0.323 0.563 0.052 0.333 0.063 0.599 0.063 0.865v0.307c0 0.109 0 0.214 0.042 0.318 0.026 0.094 0.094 0.188 0.172 0.245l0.266 0.198c0.271 0.172 0.458 0.401 0.563 0.708 0.135 0.292 0.172 0.599 0.172 0.906v0.104c0 0.24-0.026 0.495-0.104 0.719-0.068 0.245-0.052 0.469 0.036 0.667 0.109 0.188 0.177 0.401 0.203 0.63 0.052 0.266 0.026 0.531-0.068 0.745l-0.026 0.094c-0.068 0.161-0.172 0.307-0.307 0.427-0.135 0.135-0.266 0.214-0.344 0.307-0.083 0.078-0.135 0.214-0.094 0.333l0.036 0.188c0.068 0.266 0.068 0.531 0 0.771v0.109c-0.052 0.198-0.13 0.37-0.214 0.531-0.094 0.172-0.224 0.307-0.396 0.401l-0.203 0.13c-0.094 0.057-0.161 0.177-0.161 0.297 0 0.13-0.052 0.266-0.13 0.344l-0.203 0.271c-0.13 0.172-0.302 0.318-0.49 0.396-0.188 0.135-0.349 0.271-0.469 0.401-0.135 0.161-0.24 0.349-0.292 0.536-0.052 0.24-0.24 0.37-0.443 0.37h-0.719c-0.188 0-0.359 0.135-0.438 0.297-0.094 0.208-0.188 0.359-0.307 0.49-0.135 0.135-0.214 0.297-0.271 0.479-0.026 0.161-0.156 0.271-0.292 0.214-0.172-0.078-0.344 0-0.427 0.135-0.156 0.266-0.318 0.469-0.49 0.641l-0.094 0.078c-0.177 0.135-0.401 0.24-0.604 0.24-0.24 0-0.359 0.109-0.396 0.266-0.042 0.135-0.068 0.307-0.083 0.458-0.026 0.156-0.078 0.302-0.13 0.438l-0.068 0.078c-0.135 0.203-0.24 0.401-0.375 0.573l-0.052 0.083c-0.172 0.224-0.401 0.401-0.667 0.464-0.323 0.109-0.599 0.135-0.88 0.135h-0.188c-0.13 0-0.266 0.078-0.359 0.214l-0.078 0.135-0.083 0.156-0.172 0.297c-0.135 0.24-0.333 0.396-0.599 0.479-0.266 0.068-0.573 0.094-0.854 0.078l-0.214-0.026c-0.188 0-0.359-0.052-0.531-0.135-0.135-0.052-0.323 0-0.401 0.135-0.135 0.188-0.297 0.292-0.469 0.349l-0.401 0.13c-0.266 0.068-0.557 0.068-0.839 0l-0.214-0.068c-0.13 0-0.266-0.063-0.375-0.13-0.13-0.068-0.266-0.094-0.396-0.083l-0.177 0.031c-0.266 0.026-0.505 0-0.745-0.068l-0.359-0.083c-0.161-0.052-0.307-0.156-0.401-0.307-0.068-0.13-0.214-0.24-0.401-0.266h-0.427c-0.266-0.036-0.505-0.13-0.667-0.333l-0.531-0.505-0.188-0.161-0.292-0.214-0.172-0.13c-0.203-0.135-0.443-0.24-0.698-0.266l-0.797-0.135c-0.083 0-0.135-0.026-0.214-0.042l-0.307-0.068c-0.135-0.026-0.266-0.13-0.359-0.266-0.078-0.13-0.229-0.188-0.359-0.13-0.266 0.104-0.479 0.13-0.693 0.172h-0.188c-0.349 0.026-0.667-0.026-0.99-0.172-0.318-0.135-0.531-0.333-0.729-0.589-0.161-0.229-0.401-0.401-0.698-0.453l-0.37-0.078c-0.266-0.057-0.536-0.161-0.776-0.323-0.266-0.188-0.401-0.359-0.505-0.573-0.104-0.198-0.172-0.427-0.188-0.667v-0.104c-0.026-0.271-0.214-0.51-0.464-0.573-0.307-0.094-0.536-0.229-0.734-0.401-0.188-0.177-0.297-0.427-0.297-0.693l0.031-0.589c0-0.229-0.068-0.427-0.229-0.573-0.161-0.161-0.266-0.359-0.266-0.573l-0.042-0.479c-0.026-0.349-0.094-0.693-0.172-1.042-0.078-0.307 0.042-0.615 0.292-0.76l0.094-0.068c0.135-0.094 0.188-0.266 0.109-0.427l-0.109-0.13c-0.13-0.135-0.266-0.229-0.401-0.266-0.104-0.031-0.13-0.135-0.13-0.203l0.13-0.161c0.083-0.094 0.068-0.24 0-0.318-0.104-0.109-0.156-0.24-0.172-0.375l-0.026-0.932c0-0.188 0.026-0.375 0.078-0.557 0.057-0.161 0-0.349-0.156-0.427zM14.214 14.505c0.094-0.094 0.078-0.266 0-0.333-0.135-0.104-0.229-0.224-0.307-0.359l-0.135-0.214c-0.089-0.172-0.208-0.318-0.344-0.453l-0.026-0.026c-0.135-0.104-0.229-0.24-0.307-0.401-0.068-0.13-0.068-0.266 0-0.401l0.078-0.13c0.083-0.135 0.135-0.323 0.135-0.479v-0.057c0-0.13-0.052-0.266-0.135-0.396-0.052-0.109-0.104-0.24-0.13-0.375v-0.078c-0.042-0.161 0-0.333 0.104-0.469 0.109-0.172 0.188-0.333 0.229-0.531v-0.031c0.052-0.13 0.026-0.302-0.057-0.438-0.078-0.135-0.104-0.266-0.052-0.427l0.094-0.266c0.078-0.24 0.203-0.453 0.359-0.641l0.188-0.198 0.135-0.161 0.078-0.078c0.078-0.083 0.094-0.214 0.026-0.323-0.068-0.135-0.104-0.266-0.078-0.401l0.026-0.188c0.042-0.266 0.135-0.531 0.307-0.745l0.052-0.052c0.198-0.266 0.453-0.443 0.745-0.536l0.365-0.13c0.156-0.052 0.266-0.229 0.266-0.401 0-0.214 0.068-0.401 0.187-0.573l0.063-0.068c0.135-0.224 0.297-0.453 0.401-0.693l0.094-0.172c0.026-0.042 0.042-0.094 0.042-0.135 0-0.224-0.135-0.427-0.349-0.438l-0.583-0.042c-0.333-0.026-0.667 0-0.99 0l-1.13 0.135c-0.177 0-0.307 0.13-0.323 0.318 0 0.188-0.135 0.349-0.292 0.401l-0.479 0.13-0.135 0.042-0.401 0.135c-0.292 0.094-0.531 0.307-0.667 0.599l-0.104 0.172c-0.135 0.297-0.359 0.536-0.641 0.708-0.266 0.172-0.401 0.453-0.427 0.771v0.135c-0.026 0.266-0.109 0.531-0.266 0.719l-0.068 0.109c-0.109 0.13-0.135 0.307-0.068 0.453 0.068 0.156 0.109 0.333 0.094 0.505v0.708c0 0.188-0.135 0.344-0.266 0.396-0.188 0.068-0.307 0.214-0.359 0.401l-0.068 0.266c-0.052 0.271 0.042 0.536 0.266 0.698 0.214 0.156 0.349 0.396 0.401 0.693v0.24c0.042 0.266 0.188 0.531 0.427 0.667 0.24 0.161 0.427 0.401 0.531 0.667l0.068 0.214c0.109 0.292 0.349 0.464 0.615 0.49h0.078c0.24 0 0.453 0.135 0.589 0.349 0.13 0.214 0.344 0.359 0.583 0.401l0.375 0.104c0.229 0.068 0.443 0.188 0.615 0.359l0.026 0.031c0.135 0.104 0.349 0.089 0.469-0.057l0.094-0.104zM15.734 13.281c0.13 0.078 0.266 0.036 0.318-0.083l0.042-0.063c0.094-0.188 0.214-0.375 0.344-0.536l0.271-0.401c0.036 0 0.052-0.026 0.063-0.052l0.323-0.427c0.135-0.13 0.292-0.224 0.479-0.224 0.172 0 0.323-0.094 0.401-0.266 0.052-0.188 0.13-0.365 0.292-0.51l0.068-0.078c0.135-0.135 0.266-0.203 0.401-0.266 0.172-0.026 0.333-0.057 0.495-0.057h0.396c0.161 0 0.297-0.063 0.375-0.198s0.198-0.224 0.333-0.292l0.135-0.057c0.214-0.089 0.453-0.156 0.693-0.182l0.266-0.026c0.161 0 0.333 0 0.495 0.089 0.13 0.094 0.307 0.083 0.438-0.026l0.094-0.052c0.198-0.135 0.427-0.24 0.667-0.266h0.026c0.266-0.052 0.505-0.052 0.776-0.042h0.13c0.266 0.042 0.495 0.135 0.667 0.333l0.042 0.052c0.135 0.135 0.344 0.245 0.531 0.245h0.229c0.068 0 0.13-0.031 0.172-0.094 0.042-0.042 0.109-0.083 0.172-0.083h0.135c0.188 0 0.359 0.052 0.531 0.109l0.229 0.094c0.214 0.063 0.438 0.13 0.667 0.156h0.161c0.104 0 0.172-0.063 0.172-0.156 0-0.135-0.026-0.271-0.094-0.375l-0.094-0.214c-0.104-0.172-0.188-0.359-0.266-0.531l-0.026-0.068c-0.068-0.135-0.068-0.266 0-0.401v-0.068c0.026-0.104-0.026-0.224-0.135-0.266h-0.104c-0.214-0.068-0.401-0.188-0.536-0.359l-0.13-0.135c-0.135-0.13-0.214-0.333-0.271-0.531-0.063-0.172-0.208-0.307-0.396-0.307h-0.563c-0.198-0.026-0.375-0.135-0.495-0.292l-0.052-0.068c-0.094-0.135-0.172-0.292-0.224-0.453-0.068-0.135-0.214-0.214-0.349-0.172l-0.161 0.052c-0.266 0.094-0.531 0.13-0.797 0.104l-0.214-0.026c-0.229 0-0.443-0.094-0.615-0.224l-0.135-0.094c-0.104-0.083-0.208-0.135-0.333-0.188-0.13-0.052-0.24-0.026-0.318 0.068l-0.068 0.078c-0.13 0.135-0.318 0.24-0.505 0.266l-0.719 0.042c-0.135 0-0.266 0.068-0.359 0.161-0.109 0.094-0.229 0.156-0.365 0.182h-0.026c-0.13 0-0.266 0.094-0.396 0.188v0.026c-0.135 0.135-0.307 0.203-0.484 0.203l-0.052 0.026c-0.161 0-0.318 0-0.479 0.042h-0.161c-0.224 0.036-0.401 0.224-0.453 0.464l-0.052 0.307c-0.042 0.214-0.135 0.401-0.266 0.573-0.135 0.161-0.297 0.266-0.495 0.266h-0.224c-0.135 0.031-0.271 0.177-0.245 0.333 0.031 0.229 0 0.427-0.036 0.63l-0.052 0.224c-0.057 0.203-0.188 0.359-0.365 0.427l-0.078 0.042h-0.026c-0.078 0.052-0.135 0.172-0.068 0.266 0.083 0.135 0.109 0.266 0.094 0.401l-0.042 0.427c0 0.156-0.063 0.307-0.13 0.438-0.083 0.135-0.083 0.266-0.026 0.401l0.13 0.292c0.068 0.135 0.083 0.271 0.042 0.427-0.042 0.135-0.068 0.266-0.052 0.401 0 0.135 0.078 0.266 0.188 0.323zM26.266 22.922c0.135 0.13 0.333 0.182 0.495 0.078l0.266-0.172c0.135-0.094 0.24-0.229 0.292-0.401v-0.026l0.135-0.401 0.078-0.135 0.057-0.13 0.052-0.094c0.052-0.109 0.13-0.188 0.266-0.229l0.052-0.026c0.109-0.026 0.177-0.13 0.177-0.24 0-0.13 0.063-0.24 0.13-0.333l0.109-0.094 0.266-0.344v-0.026c0.078-0.109 0.13-0.229 0.161-0.365 0.026-0.13 0-0.266-0.057-0.396l-0.026-0.057c-0.052-0.13-0.078-0.224-0.094-0.344l-0.036-0.375-0.042-0.401c0-0.13 0.052-0.266 0.135-0.396 0.089-0.109 0.156-0.245 0.214-0.375v-0.052l0.026-0.026c0.026-0.135-0.042-0.271-0.161-0.271-0.135-0.063-0.266-0.172-0.307-0.333l-0.042-0.078c-0.063-0.24-0.104-0.479-0.104-0.719l0.026-0.667v-0.042c0-0.224-0.188-0.401-0.401-0.401h-0.026c-0.266 0-0.479-0.078-0.667-0.266l-0.104-0.135-0.271-0.302-0.344-0.401c-0.135-0.188-0.266-0.349-0.443-0.51-0.13-0.13-0.333-0.266-0.531-0.292l-0.266-0.042c-0.135-0.026-0.307-0.089-0.453-0.182-0.109-0.083-0.266-0.057-0.375 0.052l-0.172 0.188-0.083 0.052c-0.094 0.026-0.182-0.026-0.224-0.135-0.052-0.156-0.052-0.344 0.026-0.505v-0.078c0-0.094-0.078-0.161-0.161-0.135h-0.214c-0.24 0-0.479-0.026-0.703-0.13l-0.135-0.057c-0.135-0.068-0.292-0.104-0.438-0.104-0.135 0-0.271 0.026-0.401 0.104l-0.052 0.042c-0.161 0.104-0.349 0.161-0.536 0.172h-0.438c-0.203 0-0.401 0.068-0.536 0.177-0.172 0.104-0.359 0.172-0.557 0.208l-0.359 0.057c-0.161 0.036-0.333 0.104-0.484 0.224-0.13 0.135-0.318 0.214-0.49 0.266l-0.068 0.031c-0.214 0.063-0.401 0.198-0.531 0.396l-0.161 0.161c-0.094 0.135-0.094 0.292 0 0.427 0.078 0.135 0.24 0.172 0.401 0.135l0.198-0.083c0.104-0.036 0.229 0 0.318 0.052 0.083 0.068 0.203 0.109 0.323 0.094l0.333-0.036c0.188 0 0.375 0 0.557 0.052 0.203 0.068 0.375 0.135 0.536 0.266 0.161 0.135 0.333 0.188 0.531 0.214 0.203 0.026 0.401 0.068 0.589 0.135l0.13 0.026c0.135 0.042 0.245 0.13 0.323 0.266 0.068 0.109 0.13 0.266 0.13 0.401v0.042c0 0.156 0.135 0.266 0.271 0.266h0.078c0.214 0 0.443 0.026 0.667 0.094l0.094 0.036c0.135 0.057 0.266 0.135 0.359 0.271 0.109 0.13 0.172 0.266 0.214 0.396l0.042 0.188c0.036 0.203 0.052 0.401 0.052 0.615v0.068c0 0.13 0.094 0.266 0.24 0.318 0.135 0.026 0.292 0.083 0.443 0.161l0.063 0.026c0.177 0.104 0.349 0.24 0.479 0.401l0.068 0.094c0.177 0.198 0.266 0.453 0.266 0.703v0.094c0 0.203-0.036 0.401-0.104 0.589-0.052 0.161 0 0.349 0.172 0.401l0.094 0.068c0.203 0.078 0.375 0.224 0.505 0.396 0.135 0.203 0.188 0.427 0.188 0.667v0.401c-0.026 0.135-0.063 0.24-0.13 0.333s-0.068 0.229 0 0.323l0.078 0.13zM17.734 16.094h-0.026c-0.057 0-0.083 0.068-0.068 0.135l0.052 0.266c0.052 0.214 0.078 0.427 0.109 0.641 0.026 0.214 0.13 0.396 0.292 0.531h0.052c0.203 0.161 0.323 0.401 0.333 0.641v0.667c-0.026 0.13 0 0.266 0.083 0.375l0.063 0.063c0.135 0.161 0.188 0.349 0.203 0.536l0.036 0.734c0 0.172-0.104 0.318-0.266 0.344l-0.13 0.026c-0.094 0-0.135 0.109-0.135 0.203 0 0.104 0.042 0.224 0.078 0.333v0.026c0.042 0.13 0.057 0.266 0.042 0.401l-0.052 0.359c-0.052 0.266-0.135 0.505-0.266 0.745l-0.094 0.161c-0.068 0.13-0.161 0.214-0.271 0.266-0.13 0.052-0.224 0.161-0.266 0.292l-0.104 0.479c-0.068 0.271-0.188 0.536-0.349 0.802h-0.026c-0.161 0.214-0.359 0.401-0.599 0.531l-0.161 0.109-0.401 0.198c-0.13 0.057-0.214 0.177-0.24 0.323l-0.063 0.438c-0.042 0.266-0.135 0.495-0.323 0.667l-0.172 0.203-0.203 0.198-0.198 0.214c-0.161 0.188-0.401 0.266-0.667 0.229l-0.479-0.094-0.443-0.057h-0.12c-0.052 0.057-0.063 0.135-0.026 0.214 0.094 0.161 0.24 0.271 0.401 0.271l0.292 0.052c0.135 0 0.297 0.068 0.427 0.13 0.135 0.094 0.266 0.161 0.427 0.203h0.026c0.177 0.068 0.359 0.078 0.536 0.068l0.198-0.031c0.229-0.026 0.443 0 0.625 0.083l0.161 0.052c0.068 0.026 0.172 0 0.24-0.068 0.083-0.078 0.161-0.13 0.266-0.172l0.109-0.026c0.172-0.052 0.344-0.083 0.531-0.083h0.109c0.156 0 0.307 0.031 0.438 0.109l0.052 0.026c0.094 0.042 0.203 0 0.271-0.078 0.036-0.094 0.13-0.188 0.224-0.266l0.333-0.229 0.214-0.135 0.109-0.063c0.13-0.094 0.318-0.135 0.479-0.135l0.479-0.042c0.188-0.026 0.349-0.156 0.401-0.344 0.052-0.203 0.13-0.401 0.266-0.573 0.135-0.177 0.266-0.323 0.401-0.453 0.172-0.135 0.344-0.203 0.531-0.214h0.109c0.214-0.042 0.37-0.24 0.359-0.453v-0.896c0.026-0.13 0.078-0.307 0.156-0.438l0.271-0.401 0.104-0.135c0.083-0.068 0.135-0.156 0.229-0.266l0.13-0.172c0.083-0.135 0.083-0.307-0.026-0.427-0.13-0.135-0.198-0.323-0.224-0.505v-0.057c-0.026-0.214-0.026-0.438 0.036-0.667v-0.063c0.068-0.177 0.161-0.349 0.271-0.51 0.104-0.13 0.089-0.318-0.042-0.427l-0.229-0.198c-0.188-0.161-0.292-0.401-0.318-0.641l-0.026-0.266c0-0.083 0-0.172-0.026-0.266l-0.026-0.203c-0.031-0.224-0.161-0.401-0.349-0.531l-0.094-0.026c-0.135-0.083-0.266-0.203-0.375-0.359-0.104-0.135-0.156-0.323-0.198-0.51l-0.042-0.224c0-0.083-0.052-0.135-0.13-0.172l-0.641-0.203c-0.135-0.026-0.266-0.13-0.359-0.224h-0.026c-0.083-0.109-0.214-0.109-0.297-0.031l-0.13 0.135c-0.026 0.042-0.057 0.052-0.094 0.042-0.083 0-0.135-0.068-0.109-0.135 0.026-0.214-0.052-0.427-0.224-0.557l-0.177-0.135-0.396-0.266c-0.109-0.042-0.271 0-0.323 0.13l-0.052 0.083c0 0.026-0.042 0.036-0.052 0.052-0.057 0-0.135 0-0.135-0.068l-0.042-0.068c-0.036-0.078-0.13-0.13-0.214-0.156zM16.135 17.427l-0.068-0.068c-0.068-0.052-0.135-0.042-0.203 0.026-0.094 0.161-0.172 0.333-0.214 0.51v0.026c-0.036 0.172-0.198 0.292-0.359 0.266h-0.156c-0.188 0-0.333 0.161-0.333 0.344 0 0.24-0.083 0.484-0.229 0.667l-0.078 0.083c-0.135 0.172-0.333 0.292-0.536 0.359l-0.104 0.026c-0.135 0.042-0.24 0.135-0.266 0.292 0 0.135-0.083 0.271-0.188 0.375l-0.135 0.104c-0.161 0.177-0.401 0.271-0.641 0.297l-0.667 0.068c-0.214 0-0.396 0.13-0.531 0.333-0.135 0.198-0.333 0.333-0.531 0.359l-0.297 0.026c-0.214 0.026-0.438 0.026-0.667-0.026l-0.13-0.026-0.365-0.094c-0.13-0.042-0.24 0-0.318 0.094l-0.135 0.172c-0.172 0.198-0.422 0.292-0.667 0.266l-0.865-0.104c-0.135 0-0.24-0.068-0.359-0.135-0.135-0.078-0.229-0.172-0.323-0.266l-0.333-0.401c-0.036-0.026-0.104-0.042-0.172-0.026l-0.188 0.078-0.745 0.188c-0.135 0.042-0.307 0-0.438-0.078-0.135-0.109-0.297-0.135-0.458-0.135h-0.172c-0.161 0.042-0.266 0.214-0.214 0.375l0.052 0.266c0.042 0.135 0.031 0.292-0.036 0.427s-0.052 0.266 0.036 0.401l0.083 0.104c0.104 0.161 0.266 0.297 0.401 0.427 0.13 0.135 0.266 0.266 0.37 0.443l0.203 0.359c0.104 0.188 0.266 0.292 0.479 0.292 0.198 0 0.401 0.068 0.557 0.198l0.401 0.375c0.109 0.094 0.266 0.109 0.375 0.026l0.068-0.026c0.078 0 0.13 0.052 0.13 0.135v0.068c0 0.172 0.135 0.333 0.307 0.396l0.599 0.135c0.214 0.068 0.427 0.135 0.63 0.266h0.104c0.109 0 0.203-0.094 0.188-0.214v-0.464c0-0.135 0.052-0.271 0.161-0.323l0.068-0.026c0.063 0.026 0.13 0.078 0.104 0.135v0.224c0 0.172 0.052 0.333 0.172 0.453 0.135 0.135 0.307 0.161 0.453 0.109 0.161-0.068 0.323-0.083 0.495-0.068l0.495 0.026c0.24 0.026 0.464 0 0.667-0.094 0.24-0.078 0.438-0.188 0.625-0.333l0.078-0.052 0.401-0.359c0.135-0.135 0.307-0.203 0.469-0.203h0.531c0.266-0.026 0.51-0.266 0.536-0.531l0.052-0.266c0-0.177 0.078-0.333 0.198-0.469 0.135-0.135 0.266-0.214 0.401-0.266l0.161-0.068c0.224-0.094 0.401-0.292 0.479-0.531l0.078-0.323c0.068-0.266 0.203-0.531 0.401-0.703l0.026-0.031c0.161-0.13 0.188-0.396 0.083-0.583l-0.042-0.094c-0.094-0.135-0.109-0.333-0.042-0.505 0.068-0.188 0.135-0.349 0.24-0.51l0.135-0.188c0.052-0.104 0.052-0.266-0.026-0.359-0.083-0.104-0.135-0.24-0.135-0.37l-0.026-0.188v-0.453c0.026-0.135 0-0.307-0.042-0.443l-0.052-0.156zM14.229 16.411v-0.036c0-0.135-0.083-0.214-0.188-0.214h-0.349c-0.13 0.026-0.266 0.026-0.375 0h-0.599c-0.307 0-0.599-0.057-0.891-0.135l-0.323-0.078-0.266-0.083-0.599-0.198c-0.323-0.094-0.563-0.307-0.708-0.599l-0.068-0.135c-0.094-0.198-0.292-0.307-0.49-0.266-0.229 0-0.453 0-0.667-0.104l-0.161-0.068c-0.307-0.135-0.531-0.401-0.531-0.76l-0.057-0.359c-0.036-0.188-0.156-0.359-0.318-0.427-0.188-0.083-0.359-0.188-0.536-0.307l-0.063-0.042c-0.203-0.161-0.375-0.37-0.469-0.625l-0.026-0.078c-0.068-0.214-0.078-0.443-0.026-0.667l0.026-0.083c0.052-0.172 0.068-0.344 0.068-0.531 0-0.161-0.068-0.323-0.188-0.443l-0.188-0.172c-0.214-0.172-0.344-0.427-0.359-0.708-0.026-0.292-0.026-0.573 0.026-0.854v-0.078c0-0.161-0.135-0.266-0.266-0.266h-0.042c-0.172 0-0.318 0.104-0.401 0.266-0.063 0.188-0.172 0.333-0.292 0.479l-0.052 0.068-0.401 0.401c-0.135 0.13-0.214 0.333-0.24 0.531-0.026 0.203-0.078 0.401-0.161 0.589l-0.026 0.068c-0.068 0.156-0.172 0.307-0.307 0.401-0.13 0.104-0.224 0.266-0.224 0.422l-0.026 0.615c0 0.266-0.042 0.536-0.135 0.802l-0.026 0.104c-0.068 0.177 0 0.359 0.161 0.443l0.557 0.24 0.052 0.026c0.042 0 0.057 0.026 0.068 0.068 0.042 0.052 0 0.13-0.042 0.13l-0.13 0.068c-0.078 0.026-0.135 0.109-0.161 0.203l-0.026 0.13v0.026l-0.135 0.75c-0.026 0.104-0.026 0.224-0.026 0.344 0 0.109 0.068 0.203 0.161 0.24l0.292 0.135c0.135 0.078 0.297 0.172 0.401 0.266l0.135 0.109c0.036 0.052 0.104 0.104 0.156 0.13l0.057 0.052c0.094 0.083 0.156 0.188 0.188 0.307l0.13 0.599c0 0.161 0.135 0.297 0.266 0.333l0.214 0.068c0 0 0.042 0 0.068 0.026l0.266 0.083c0.214 0.068 0.401 0.188 0.563 0.344 0.161 0.135 0.318 0.307 0.453 0.495l0.052 0.052c0.109 0.135 0.266 0.203 0.427 0.161s0.333-0.052 0.505-0.052h0.203c0.13 0 0.307 0.036 0.453 0.13 0.13 0.083 0.307 0.135 0.464 0.203h0.042c0.161 0.068 0.333 0.036 0.469-0.052 0.13-0.109 0.307-0.161 0.479-0.161l0.625 0.036c0.135 0 0.266-0.026 0.333-0.13h0.026l0.229-0.214 0.068-0.068c0.104-0.13 0.266-0.188 0.422-0.198h0.604c0.156 0 0.307-0.135 0.37-0.266 0.068-0.135 0.203-0.245 0.359-0.271l0.271-0.052c0.104 0 0.198-0.094 0.24-0.214 0.036-0.13 0.104-0.24 0.198-0.318l0.214-0.214c0.135-0.135 0.203-0.266 0.229-0.427z" />
  <path
     id="path30"
     d="M 8.3388235,26.04915 C 8.2341466,25.989385 7.967977,25.898645 7.7392132,25.844735 7.2156234,25.721347 7.1250864,25.676706 6.8932539,25.427617 6.7887824,25.315369 6.6765736,25.223529 6.643901,25.223529 c -0.1076302,0 -0.2965202,-0.120512 -0.565559,-0.360827 C 5.8412525,24.650925 5.7913915,24.62312 5.6077538,24.600279 5.1602442,24.544619 4.9070788,24.360443 4.6583091,23.909566 4.5586444,23.728932 4.3672258,23.485585 4.1141875,23.217834 3.5694043,22.641376 3.4664143,22.406646 3.5910634,22.025554 c 0.04792,-0.146508 0.053323,-0.223835 0.024398,-0.349218 -0.1232334,-0.534198 0.057012,-0.947346 0.4732307,-1.084711 0.226412,-0.07472 0.6908244,-0.02977 0.9198189,0.08904 l 0.1935104,0.100397 0.3072244,-0.07704 c 0.1689734,-0.04237 0.4088714,-0.111577 0.5331067,-0.153789 0.3911028,-0.132889 0.5881792,-0.05895 0.9356775,0.351061 0.3189089,0.376275 0.3667052,0.401589 0.8780189,0.465018 0.657088,0.08151 0.6345197,0.08544 0.8554131,-0.148866 0.3283697,-0.348308 0.5031838,-0.386999 1.1020356,-0.243909 0.2607934,0.06231 0.4112834,0.07572 0.6986944,0.06223 l 0.36631,-0.01718 0.27369,-0.282867 c 0.323832,-0.334691 0.434654,-0.380279 1.083102,-0.445551 0.238118,-0.02397 0.483765,-0.06632 0.545882,-0.0941 0.16595,-0.07424 0.313448,-0.222123 0.342673,-0.343563 0.07706,-0.320226 0.275573,-0.530768 0.602742,-0.639277 0.209398,-0.06945 0.402384,-0.201589 0.490239,-0.335672 0.03299,-0.05035 0.08204,-0.218568 0.109002,-0.373811 0.07984,-0.459756 0.277462,-0.685963 0.6775,-0.775487 l 0.193825,-0.04338 0.131694,-0.289914 c 0.16495,-0.363122 0.322062,-0.496969 0.611528,-0.520974 0.164231,-0.01362 0.223848,-3.42e-4 0.34552,0.07695 0.329879,0.209558 0.386462,0.369245 0.423555,1.195351 0.02245,0.499886 0.03772,0.602847 0.106087,0.715294 0.175643,0.288875 0.158175,0.604402 -0.05023,0.907374 -0.07367,0.107096 -0.168141,0.277009 -0.209938,0.377585 l -0.076,0.182866 0.08224,0.197647 c 0.178699,0.42948 0.127023,0.78536 -0.160643,1.106299 -0.205611,0.229394 -0.258744,0.333882 -0.36113,0.710171 -0.14373,0.528235 -0.352059,0.78112 -0.838532,1.017872 -0.147863,0.07196 -0.297028,0.156345 -0.331478,0.187522 -0.03549,0.03212 -0.0832,0.174786 -0.110083,0.329175 -0.08867,0.509258 -0.283841,0.803525 -0.660921,0.996507 -0.155921,0.0798 -0.260235,0.100243 -0.607633,0.1191 l -0.419398,0.02277 -0.201779,0.189031 c -0.292942,0.274435 -0.554295,0.454983 -0.867232,0.5991 -0.413999,0.19066 -0.551452,0.215403 -1.290904,0.232375 -0.373415,0.0086 -0.7890549,0.0187 -0.9236431,0.02251 -0.1684537,0.0048 -0.2821662,-0.01291 -0.3649224,-0.05673 -0.076125,-0.04031 -0.1288406,-0.0497 -0.1437308,-0.02561 -0.012933,0.02093 -0.089455,0.07169 -0.1700484,0.112803 -0.220358,0.112418 -0.5311698,0.09596 -0.7707102,-0.0408 z"
     style="fill:#ffff00;stroke-width:0.0376471" />
  <path
     id="path32"
     d="M 9.0164706,19.429265 C 8.8699471,19.389038 8.5667689,19.263533 8.3779223,19.164929 8.2068725,19.075617 8.0148879,19.067106 7.5990374,19.130398 7.1248557,19.202568 7.0291268,19.159766 6.5317647,18.653207 6.304,18.42123 6.0736421,18.203457 6.0198583,18.169265 5.9660744,18.135074 5.7682852,18.058885 5.5803267,17.999956 4.9072356,17.788931 4.7654798,17.638046 4.6263193,16.984509 L 4.5436314,16.596184 4.2765216,16.371037 C 4.1296112,16.247207 3.8992941,16.094054 3.7647059,16.030697 3.3042905,15.813958 3.1491249,15.600225 3.1552297,15.191171 c 0.00359,-0.240289 0.1553007,-1.194735 0.2132577,-1.341618 0.01763,-0.04468 -0.022117,-0.08811 -0.1483392,-0.16208 -0.1984393,-0.116294 -0.3505237,-0.32484 -0.4011235,-0.550044 -0.028059,-0.12488 -0.016458,-0.233907 0.057325,-0.538761 0.061341,-0.253446 0.1006939,-0.553407 0.1168181,-0.890433 0.0308,-0.643773 0.082492,-0.808615 0.3411984,-1.088049 0.2273809,-0.245598 0.3315341,-0.457035 0.39352,-0.7988662 C 3.8101525,9.3676483 3.8965984,9.2076086 4.2765114,8.8056342 4.4714672,8.5993575 4.6740986,8.3432988 4.7283628,8.2346444 5.0223099,7.6460675 5.5908235,7.4467591 6.0649021,7.7660828 c 0.070422,0.047434 0.1673237,0.1574017 0.2153382,0.2443736 0.092457,0.1674732 0.096748,0.2143233 0.086087,0.9398313 -0.00726,0.4939425 0.01555,0.5557934 0.2913643,0.7901121 0.1195109,0.1015309 0.229548,0.2435291 0.3036875,0.3918952 0.1004525,0.201023 0.1162677,0.273091 0.1162677,0.529816 0,0.163429 -0.027244,0.416925 -0.060542,0.563324 -0.1333767,0.586413 0.072724,0.917755 0.7994858,1.285311 0.3932325,0.198875 0.545676,0.435108 0.6405394,0.992605 0.044702,0.262706 0.085859,0.394016 0.142315,0.454052 0.1248357,0.132752 0.4688218,0.235538 0.7882563,0.235538 0.4012187,0 0.6269307,0.121824 0.8389737,0.45282 0.283576,0.44266 0.353242,0.495734 0.879206,0.669823 0.913027,0.302202 1.150145,0.341329 2.164706,0.3572 0.72731,0.01138 0.931393,0.02607 1.046395,0.07534 0.134694,0.05771 0.153617,0.05697 0.330806,-0.01287 0.103367,-0.04074 0.193565,-0.07408 0.20044,-0.07408 0.03856,0 -0.182859,1.052762 -0.248471,1.181371 -0.04309,0.08447 -0.177129,0.256448 -0.297859,0.382175 -0.120729,0.125727 -0.243989,0.287187 -0.273911,0.358801 -0.10795,0.25836 -0.329474,0.42525 -0.627778,0.472951 -0.130392,0.02085 -0.200574,0.06688 -0.372767,0.244505 -0.281584,0.290462 -0.396641,0.334315 -0.877128,0.334315 h -0.388573 l -0.262048,0.237749 c -0.359313,0.325995 -0.47235,0.364604 -1.067479,0.364604 -0.4520809,0 -0.495515,0.0065 -0.6603937,0.09864 -0.1906899,0.106579 -0.5463488,0.150357 -0.7553497,0.09298 z"
     style="fill:#ffff00;stroke-width:0.0376471" />
  <path
     id="path34"
     d="m 13.722353,15.208319 c -0.151524,-0.0315 -0.271542,-0.09829 -0.450777,-0.250857 -0.101385,-0.0863 -0.253053,-0.158195 -0.470588,-0.223071 -0.670124,-0.199853 -0.874326,-0.318095 -1.08953,-0.630883 -0.104752,-0.152253 -0.126888,-0.16499 -0.327747,-0.188597 -0.118473,-0.01392 -0.288191,-0.05751 -0.377149,-0.09686 C 10.771585,13.714106 10.494797,13.438479 10.392188,13.20625 10.146444,12.650069 10.120845,12.60955 9.9227773,12.463228 9.8141912,12.383011 9.6775866,12.260792 9.6192114,12.191631 9.4517071,11.993176 9.2989155,11.637171 9.2986433,11.444706 9.2982364,11.157064 9.2382107,11.025774 8.9888239,10.767059 8.8228171,10.594843 8.7320307,10.463042 8.6823529,10.322133 8.4926454,9.7840395 8.7155246,9.035188 9.1437862,8.7717647 L 9.2967983,8.6776471 9.297811,8.2400275 C 9.2984938,7.9449242 9.2804332,7.7502837 9.2423529,7.6423529 9.1764203,7.4554801 9.1692334,7.2022761 9.2255926,7.0518626 9.2474332,6.9935733 9.3337023,6.8321592 9.4173017,6.693164 9.5418622,6.4860657 9.5755704,6.3875245 9.6040331,6.1472817 9.676268,5.5375721 9.8576536,5.2021963 10.28217,4.893429 10.544467,4.70265 10.601606,4.6314473 10.874911,4.1547905 11.053315,3.8436469 11.325352,3.5829449 11.614218,3.4462896 11.725762,3.3935208 12.028543,3.2874608 12.287065,3.2106008 l 0.470039,-0.1397453 0.04472,-0.1597341 c 0.05785,-0.2066099 0.258888,-0.4396977 0.442668,-0.5132319 0.07977,-0.031918 0.448629,-0.095366 0.819683,-0.1409965 0.576696,-0.070918 0.789428,-0.079846 1.465234,-0.061492 0.434823,0.011809 0.851786,0.039534 0.926584,0.06161 0.353526,0.1043414 0.599965,0.4298679 0.627973,0.8295038 0.01304,0.1860844 -0.0031,0.2427238 -0.156046,0.5464269 -0.09383,0.1863529 -0.266352,0.4828235 -0.383387,0.6588235 -0.179029,0.2692282 -0.217693,0.3578999 -0.243693,0.5588724 -0.05328,0.411833 -0.268079,0.6738054 -0.670087,0.8172401 -0.677441,0.2417078 -0.960624,0.5194327 -1.055079,1.0347438 -0.0316,0.1724152 -0.02583,0.2409679 0.03573,0.4245745 0.123059,0.3669956 0.06685,0.5282108 -0.340955,0.9778119 -0.262331,0.2892209 -0.399029,0.5099886 -0.490324,0.7918747 -0.04086,0.126162 -0.03616,0.1764732 0.03807,0.4073212 0.0779,0.2422765 0.08099,0.2840508 0.03859,0.5213527 -0.02632,0.1472602 -0.109487,0.3841445 -0.193797,0.5519685 -0.08123,0.161697 -0.147695,0.332805 -0.147695,0.380239 0,0.04743 0.05288,0.200224 0.117503,0.339534 0.08734,0.188264 0.122185,0.32578 0.135742,0.535644 0.01816,0.281166 -0.0082,0.400194 -0.180783,0.816929 -0.04926,0.11893 -0.04721,0.123271 0.161749,0.34234 0.116402,0.122036 0.308718,0.372771 0.42737,0.557189 0.118651,0.184419 0.28794,0.415994 0.376199,0.514612 0.113249,0.126541 0.168027,0.226247 0.186149,0.338823 0.01448,0.08994 0.05823,0.1852 0.100323,0.218398 0.07236,0.05708 0.06632,0.06779 -0.197308,0.350085 -0.149574,0.160163 -0.324562,0.3188 -0.38886,0.352525 -0.147362,0.07729 -0.38428,0.114983 -0.531025,0.08448 z"
     style="fill:#ffff00;stroke-width:0.0376471" />
  <path
     id="path36"
     d="m 15.735192,13.7808 c -0.241565,-0.04562 -0.492666,-0.250217 -0.619518,-0.504776 -0.104626,-0.209957 -0.126267,-0.529506 -0.05359,-0.791264 0.03578,-0.128852 0.02832,-0.172676 -0.06405,-0.37647 -0.150645,-0.332372 -0.163631,-0.627644 -0.04017,-0.913263 0.124975,-0.289113 0.163433,-0.698153 0.0836,-0.889212 -0.127525,-0.30521 -0.02913,-0.6580066 0.233255,-0.8362982 0.07722,-0.052469 0.162291,-0.095399 0.189056,-0.095399 0.08349,0 0.128506,-0.1902968 0.157881,-0.6673603 0.02519,-0.409052 0.03948,-0.4771293 0.128364,-0.6114432 0.154943,-0.2341352 0.363571,-0.3529202 0.652121,-0.3712937 0.23159,-0.014746 0.247041,-0.021884 0.334952,-0.1547262 0.05256,-0.079428 0.115932,-0.2634988 0.147483,-0.4283998 0.06784,-0.3545478 0.194992,-0.6140491 0.380842,-0.7772282 0.201488,-0.176908 0.336877,-0.2225424 0.847974,-0.2858174 0.417913,-0.051738 0.470067,-0.067303 0.666464,-0.198895 0.224497,-0.1504193 0.361536,-0.211932 0.558705,-0.2507845 0.06586,-0.012979 0.141035,-0.049242 0.167047,-0.080585 0.02601,-0.031343 0.13286,-0.1003464 0.237439,-0.1533407 0.174294,-0.088321 0.572382,-0.1479509 1.064061,-0.1593859 0.04533,-0.00105 0.160993,-0.069924 0.257031,-0.1530447 0.241918,-0.2093783 0.375152,-0.2703684 0.587042,-0.2687271 0.219502,0.0017 0.451033,0.099196 0.797097,0.3356514 l 0.258503,0.1766273 0.384513,0.014234 c 0.313021,0.011587 0.432232,-5.049e-4 0.641157,-0.065035 0.297703,-0.091951 0.466353,-0.099512 0.635803,-0.028503 0.210943,0.088396 0.357431,0.2450843 0.490642,0.5248069 0.181622,0.3813757 0.197666,0.3912929 0.665796,0.4115295 0.302757,0.013088 0.431148,0.035513 0.54845,0.095796 0.216976,0.1115051 0.410408,0.3416738 0.504875,0.6007585 0.09388,0.2574593 0.39529,0.5998281 0.55702,0.6327021 0.434818,0.088383 0.692205,0.4491774 0.615052,0.862154 -0.03134,0.167763 -0.02211,0.1971604 0.216817,0.690844 0.240395,0.496707 0.249551,0.5261037 0.249551,0.8012292 0,0.254811 -0.01137,0.300528 -0.105476,0.424019 -0.261789,0.343546 -0.660721,0.355541 -1.581275,0.04755 -0.222083,-0.0743 -0.436447,-0.135096 -0.476366,-0.135096 -0.03992,0 -0.137077,0.03812 -0.215908,0.08471 -0.119379,0.07055 -0.196798,0.08438 -0.463328,0.08274 -0.390487,-0.0024 -0.623767,-0.09743 -0.952511,-0.3880381 -0.120116,-0.106182 -0.262016,-0.2040068 -0.315333,-0.2173888 -0.05332,-0.013382 -0.305909,-0.015306 -0.561315,-0.00428 l -0.464375,0.020055 -0.354467,0.1910878 c -0.450776,0.2430061 -0.592618,0.2675701 -0.89932,0.1557401 -0.195771,-0.07138 -0.279831,-0.08156 -0.520319,-0.06302 -0.43005,0.03316 -0.759239,0.16668 -0.971897,0.394194 -0.264781,0.283279 -0.356283,0.316383 -0.955601,0.345726 -0.499895,0.02448 -0.52277,0.02923 -0.659014,0.137097 -0.08871,0.07023 -0.190094,0.211788 -0.272907,0.381041 -0.07247,0.148115 -0.174118,0.314788 -0.225883,0.370385 -0.121307,0.130289 -0.436189,0.278518 -0.592655,0.278989 -0.108387,3.39e-4 -0.150579,0.03674 -0.376471,0.324903 -0.139921,0.178495 -0.368476,0.496142 -0.507899,0.705882 -0.139422,0.209741 -0.293809,0.441846 -0.343082,0.515789 -0.134829,0.202335 -0.410355,0.311089 -0.665877,0.262829 z"
     style="fill:#ffff00;stroke-width:0.0376471" />
  <path
     id="path38"
     d="m 25.990477,23.44755 c -0.370938,-0.583792 -0.420674,-0.806115 -0.258344,-1.154818 0.15383,-0.330444 0.117683,-0.799707 -0.07656,-0.993953 -0.05172,-0.05172 -0.203405,-0.158 -0.337067,-0.236169 -0.422776,-0.247248 -0.547583,-0.562841 -0.418656,-1.058632 0.12394,-0.476616 0.06703,-0.725397 -0.235064,-1.027486 -0.186282,-0.186281 -0.326293,-0.264684 -0.647605,-0.362645 -0.218884,-0.06673 -0.463163,-0.275744 -0.534921,-0.457693 -0.03081,-0.07812 -0.06791,-0.302978 -0.08244,-0.499683 -0.05113,-0.691992 -0.150936,-0.873456 -0.529225,-0.962265 -0.124235,-0.02917 -0.319059,-0.05367 -0.432941,-0.05445 -0.41327,-0.0028 -0.713353,-0.241391 -0.790042,-0.628084 -0.02386,-0.120305 -0.05129,-0.24669 -0.06095,-0.280856 -0.01776,-0.06277 -0.409813,-0.185598 -0.767829,-0.240562 -0.245524,-0.03769 -0.480154,-0.134279 -0.709358,-0.292004 -0.273046,-0.187894 -0.416426,-0.21888 -0.955569,-0.206508 -0.391552,0.009 -0.481616,-1.6e-5 -0.589704,-0.05894 -0.101923,-0.05556 -0.1458,-0.06124 -0.218242,-0.02824 -0.148036,0.06745 -0.523805,0.05062 -0.681568,-0.03053 -0.404637,-0.208135 -0.579487,-0.712975 -0.384987,-1.111562 0.178349,-0.365486 0.683181,-0.774788 1.136857,-0.921725 0.07623,-0.02469 0.203293,-0.09704 0.282353,-0.160783 0.209586,-0.16897 0.488675,-0.282372 0.865553,-0.351695 0.231041,-0.0425 0.437674,-0.113351 0.678052,-0.232499 0.338748,-0.167907 0.354736,-0.171758 0.790588,-0.190444 0.417395,-0.01789 0.460517,-0.02724 0.698756,-0.15137 0.202985,-0.105764 0.309098,-0.13584 0.529085,-0.149958 0.242814,-0.01558 0.321429,-0.002 0.668445,0.115703 0.306244,0.103851 0.468665,0.136485 0.733993,0.147477 0.443647,0.01838 0.601454,0.09512 0.732216,0.35607 0.09108,0.181756 0.0986,0.187267 0.232955,0.170585 0.102281,-0.0127 0.20467,0.01357 0.388863,0.09976 0.137515,0.06435 0.363039,0.136238 0.501163,0.15975 0.542741,0.09239 0.804719,0.299991 1.657778,1.313711 0.235228,0.279529 0.463904,0.528811 0.50817,0.55396 0.04427,0.02515 0.148248,0.04707 0.231071,0.04871 0.321384,0.0064 0.63853,0.19447 0.780722,0.463039 0.07489,0.141452 0.08588,0.232002 0.105991,0.873113 0.01499,0.477931 0.03912,0.749633 0.0727,0.818775 0.02765,0.05691 0.122169,0.145616 0.210045,0.197115 0.192534,0.112832 0.317609,0.343862 0.317566,0.586585 -3e-5,0.172285 -0.146309,0.532986 -0.300997,0.742212 -0.07689,0.103996 -0.07835,0.124302 -0.03734,0.519417 0.02347,0.226155 0.08379,0.532624 0.134051,0.681043 0.05026,0.14842 0.09102,0.343243 0.09058,0.432942 -0.0014,0.278499 -0.157805,0.645697 -0.400735,0.940554 -0.263291,0.319571 -0.258354,0.311478 -0.311273,0.510249 -0.05222,0.196153 -0.193456,0.368234 -0.380572,0.463694 -0.156221,0.0797 -0.259086,0.260719 -0.409865,0.721274 -0.137685,0.420563 -0.382066,0.682012 -0.860512,0.920611 -0.171543,0.08555 -0.230885,0.09637 -0.42948,0.07837 -0.169472,-0.01537 -0.253158,-0.006 -0.316333,0.03539 -0.08233,0.05394 -0.0902,0.04952 -0.189371,-0.10656 z"
     style="fill:#ffff00;stroke-width:0.0376471" />
  <path
     id="path40"
     d="M 15.736471,29.52993 C 15.651651,29.49278 15.517528,29.47578 15.36,29.48221 c -0.701352,0.02864 -0.978781,-0.01979 -1.430256,-0.249639 -0.148449,-0.07558 -0.356336,-0.142697 -0.527391,-0.170278 -0.397246,-0.06405 -0.541488,-0.131289 -0.728959,-0.339802 -0.180963,-0.201274 -0.272242,-0.450197 -0.232102,-0.632954 0.01398,-0.06365 0.0877,-0.200632 0.163827,-0.304411 0.134055,-0.18275 0.144334,-0.188698 0.326646,-0.188993 0.103529,-1.51e-4 0.349176,0.02543 0.545882,0.05688 0.196706,0.03145 0.450824,0.06714 0.564706,0.0793 l 0.207059,0.02212 0.357647,-0.382791 c 0.196706,-0.210535 0.377924,-0.421474 0.402707,-0.468754 0.02478,-0.04728 0.07157,-0.250724 0.103978,-0.452097 0.09132,-0.567535 0.232764,-0.770697 0.698021,-1.002635 0.726775,-0.362308 1.001703,-0.701609 1.161992,-1.434063 0.103678,-0.473766 0.233167,-0.682785 0.541382,-0.873883 0.202397,-0.12549 0.44066,-0.75162 0.441952,-1.161402 3.01e-4,-0.09707 -0.02641,-0.291892 -0.05936,-0.432942 -0.04943,-0.211594 -0.05218,-0.291352 -0.01571,-0.455962 0.04861,-0.219351 0.230135,-0.439968 0.396341,-0.481682 0.08608,-0.02161 0.09318,-0.04009 0.09065,-0.235832 -0.005,-0.390295 -0.05033,-0.584203 -0.173139,-0.741492 C 18.024618,19.411564 17.99529,19.278855 17.99529,18.723261 V 18.22011 l -0.225686,-0.21189 c -0.292046,-0.274192 -0.386486,-0.481178 -0.495447,-1.085866 -0.11833,-0.656686 -0.116984,-0.90274 0.0058,-1.067199 0.132054,-0.176819 0.259736,-0.231625 0.539622,-0.231625 0.215524,0 0.244495,0.0088 0.263175,0.08027 0.0169,0.06461 0.03794,0.07468 0.10792,0.05163 0.179095,-0.059 0.432517,-0.06264 0.560484,-0.008 0.213352,0.09102 0.789761,0.523297 0.885346,0.663964 0.07611,0.112004 0.123173,0.138444 0.316708,0.177921 0.159754,0.03259 0.270873,0.08365 0.373872,0.171816 0.104356,0.08932 0.260258,0.160249 0.541427,0.246308 0.578606,0.177099 0.686787,0.287931 0.804665,0.824389 0.05026,0.228727 0.09266,0.324427 0.192921,0.435401 0.07068,0.07823 0.150112,0.142239 0.176522,0.142239 0.08824,0 0.415364,0.329082 0.522133,0.525252 0.08606,0.158125 0.115997,0.285378 0.162491,0.690761 0.03135,0.27331 0.07294,0.540397 0.09243,0.593527 0.01949,0.05313 0.145179,0.204321 0.279306,0.33598 0.194246,0.190673 0.255598,0.279733 0.301518,0.437693 0.07024,0.241598 0.03652,0.400201 -0.153002,0.719838 -0.242845,0.409562 -0.268749,0.929261 -0.05945,1.192634 0.268896,0.338362 0.239287,0.709808 -0.09037,1.133636 -0.344305,0.442664 -0.543263,0.716982 -0.602755,0.831057 -0.04197,0.08047 -0.05692,0.234292 -0.05709,0.587181 -2.64e-4,0.572381 -0.04416,0.803732 -0.190888,1.006279 -0.153836,0.212364 -0.352491,0.331283 -0.626116,0.374806 -0.303731,0.04831 -0.351661,0.07695 -0.572096,0.34183 -0.156384,0.187914 -0.217753,0.307157 -0.359108,0.697761 -0.0075,0.02071 -0.06497,0.107798 -0.12773,0.193537 -0.172803,0.236081 -0.427909,0.344231 -0.922523,0.391096 -0.328668,0.03114 -0.436527,0.05712 -0.564072,0.135857 -0.367523,0.226884 -0.554496,0.370002 -0.668167,0.511451 -0.221477,0.275599 -0.547231,0.357818 -0.858349,0.216644 -0.305801,-0.138761 -0.718243,-0.083 -1.076201,0.145501 -0.152911,0.09761 -0.22357,0.118592 -0.395294,0.117382 -0.115005,-8.11e-4 -0.268394,-0.02744 -0.340864,-0.05918 z"
     style="fill:#ffffff;stroke-width:0.0376471" />
  <path
     id="path42"
     d="m 16.715294,31.272296 c -0.176,-0.04784 -0.379294,-0.119683 -0.451765,-0.159642 -0.111611,-0.06154 -0.212378,-0.0731 -0.658823,-0.0756 -0.360309,-0.002 -0.609935,-0.02326 -0.789011,-0.06716 -0.236254,-0.05791 -0.279472,-0.08387 -0.440535,-0.26458 -0.241754,-0.271241 -0.46839,-0.366743 -0.93946,-0.395876 l -0.361947,-0.02238 -0.403177,-0.376471 c -0.468001,-0.437 -1.003597,-0.847434 -1.303251,-0.998699 C 11.156535,28.805481 10.903743,28.742648 10.24,28.63168 9.520105,28.511326 9.4832497,28.498629 9.2951127,28.306154 9.0191575,28.023837 8.8172096,27.991791 8.2818263,28.145365 7.9863834,28.230112 7.8861967,28.24151 7.5554398,28.228004 7.0815059,28.208651 6.8309907,28.103634 6.559936,27.810683 6.0250112,27.232546 5.9018398,27.155422 5.2794289,27.008893 4.3813131,26.797456 4.0716579,26.509215 3.9934513,25.811847 3.9309982,25.254954 3.6534886,24.886987 3.1811765,24.734802 2.9454422,24.658846 2.7671104,24.558965 2.6396441,24.431499 L 2.5223529,24.314208 v -0.52275 c 0,-0.610196 -0.060328,-0.830826 -0.3042312,-1.112634 C 2.0487549,22.483135 2.0478982,22.480241 1.9963467,21.929412 1.9750304,21.701647 1.9202516,21.313557 1.8746159,21.06699 l -0.082974,-0.448304 0.090859,-0.05993 c 0.3268565,-0.2156 0.4613745,-0.449924 0.4565138,-0.795227 -0.00383,-0.272403 -0.085736,-0.445258 -0.3180256,-0.671202 -0.1619273,-0.157504 -0.1687538,-0.173043 -0.1687538,-0.384132 0,-0.178546 -0.022707,-0.259674 -0.1205364,-0.430663 l -0.1205364,-0.210676 0.025658,-0.628722 c 0.050257,-1.231504 0.052806,-1.185515 -0.075876,-1.369108 -0.064121,-0.09148 -0.192222,-0.20547 -0.291633,-0.259504 C 1.0085079,15.667767 0.88902099,15.536068 0.7476961,15.234595 0.62885138,14.981078 0.62157675,14.942447 0.62777491,14.597764 0.63521425,14.184059 0.7032154,13.988669 0.97548472,13.59868 1.2355041,13.226236 1.2495038,13.065469 1.0765334,12.438282 1.0473637,12.332514 1.005399,12.098014 0.98327849,11.917172 0.95017272,11.646523 0.95278615,11.56509 0.99805481,11.456747 1.0930315,11.229435 1.2722941,11.039636 1.4832078,10.943076 1.8150903,10.791135 1.992698,10.471533 1.9975383,10.017546 2.0031547,9.4907689 2.0916554,9.3035942 2.4664555,9.0258086 2.6083564,8.9206381 2.7471745,8.7722824 2.8414421,8.6250583 2.9532579,8.4504279 3.0303614,8.3739381 3.1462542,8.3226733 3.2515328,8.2761035 3.3909614,8.1484235 3.5801063,7.9253783 3.7334008,7.7446088 3.9397505,7.5010948 4.0386612,7.3842357 4.137572,7.2673766 4.2376653,7.1082353 4.2610909,7.0305882 4.2988152,6.9055458 4.3175194,6.8894118 4.4247552,6.8894118 c 0.06659,0 0.1952023,-0.026952 0.2858056,-0.059894 C 4.8147704,6.7916284 5.0827697,6.759453 5.44,6.7419418 5.9010304,6.7193427 6.0323528,6.6999469 6.1552941,6.6362955 6.4845568,6.4658248 6.6670106,6.209184 6.7785743,5.7595874 6.8221907,5.5838144 6.8914628,5.3854313 6.932512,5.3187366 7.0383458,5.1467832 7.3086867,4.9187671 7.5996329,4.7560606 8.0558088,4.5009528 8.2984008,4.1836488 8.4667569,3.6218859 8.5750825,3.2604302 8.7156638,3.1099017 9.1969167,2.8400624 10.260526,2.2436948 10.469647,2.0942508 10.845285,1.6620924 c 0.302792,-0.348351 0.363304,-0.3674791 1.001927,-0.3167152 0.396964,0.031555 0.522128,0.056857 0.708082,0.1431419 0.164046,0.076119 0.287719,0.1054935 0.451765,0.1073017 0.314977,0.00347 0.537164,-0.1274752 0.962755,-0.5674047 l 0.340501,-0.35197156 0.233078,0.0990454 c 0.502957,0.21372938 0.634647,0.24576716 1.152415,0.28036146 0.281188,0.018787 0.621368,0.061027 0.755957,0.093865 0.134588,0.032839 0.363294,0.055781 0.508235,0.050983 0.261644,-0.00866 0.264654,-0.00763 0.420709,0.1440386 0.08645,0.084019 0.23892,0.18259 0.338824,0.219046 0.42464,0.154956 0.493314,0.1975686 0.643582,0.3993495 0.233628,0.3137167 0.732176,0.7761046 0.936477,0.8685528 0.162692,0.073621 0.269573,0.085257 0.973349,0.105975 0.770459,0.022681 0.798559,0.026316 1.103657,0.1427735 0.427527,0.163189 0.734588,0.1879264 1.118724,0.090126 0.164985,-0.042005 0.368504,-0.08735 0.452266,-0.1007682 0.150581,-0.024122 0.826166,0.061539 1.058322,0.1341887 0.135669,0.042456 0.36889,0.2801282 0.624106,0.636018 0.3177,0.4430214 0.539473,0.5270588 1.390896,0.5270588 h 0.555091 l 0.195689,0.16 c 0.298771,0.2442816 0.447049,0.4826556 0.447499,0.7194048 9.72e-4,0.5119356 0.429668,0.927654 0.956612,0.927654 0.161721,0 0.174608,0.01793 0.446501,0.6211765 0.149131,0.3308766 0.209208,0.514068 0.22451,0.6845956 0.02549,0.2840354 0.140381,0.5018835 0.336298,0.6376542 0.166754,0.1155603 0.165665,0.1065367 0.08366,0.6933798 -0.09115,0.6522477 -0.02754,0.9392267 0.265131,1.196196 0.117098,0.102814 0.133982,0.139474 0.133982,0.290908 0,0.115892 -0.03051,0.225357 -0.09214,0.330562 -0.134834,0.230162 -0.173046,0.541958 -0.114326,0.932871 0.05769,0.384054 0.138237,0.555459 0.390974,0.831994 0.181728,0.198838 0.189377,0.216366 0.227654,0.521631 0.02178,0.173734 0.03961,0.504967 0.03961,0.736074 0,0.693927 0.09409,0.871941 0.714278,1.351321 0.211629,0.163582 0.258153,0.223017 0.353625,0.451765 0.158523,0.379812 0.177651,0.820527 0.05996,1.381395 -0.101271,0.482596 -0.08034,0.729362 0.09419,1.110439 0.123879,0.270487 0.161955,0.620459 0.09428,0.866561 -0.04073,0.148101 -0.105318,0.234087 -0.361673,0.481477 -0.321263,0.310028 -0.462857,0.539594 -0.464407,0.752941 -4.52e-4,0.06212 0.02535,0.24847 0.05733,0.414117 0.06747,0.349422 0.03013,0.652506 -0.121099,0.98283 -0.07222,0.15776 -0.135137,0.223578 -0.350763,0.36696 -0.296729,0.197311 -0.43655,0.380219 -0.483738,0.6328 -0.03767,0.201654 -0.313035,0.585532 -0.481515,0.671272 -0.401627,0.204391 -0.819906,0.640162 -1.000925,1.042783 l -0.123657,0.275038 -0.443562,3.8e-5 c -0.295371,2.7e-5 -0.485791,0.01769 -0.56996,0.05285 -0.185415,0.07747 -0.429127,0.312817 -0.529926,0.511733 -0.0485,0.09572 -0.156372,0.260291 -0.23971,0.365721 -0.08334,0.10543 -0.185966,0.255954 -0.228063,0.334498 -0.06506,0.121383 -0.105997,0.150345 -0.272895,0.193058 -0.263116,0.06734 -0.409905,0.18725 -0.63186,0.516173 -0.227651,0.337364 -0.45614,0.540322 -0.638385,0.567054 -0.461164,0.06764 -0.667829,0.183556 -0.823339,0.461785 -0.04726,0.08456 -0.118349,0.323859 -0.157966,0.531769 -0.06795,0.356628 -0.08772,0.402088 -0.349343,0.803331 -0.152521,0.233922 -0.324033,0.455925 -0.381137,0.493341 -0.183707,0.120369 -0.445354,0.179545 -0.926795,0.209611 -0.6861,0.04285 -0.844983,0.14423 -1.185967,0.756761 -0.237664,0.426932 -0.324797,0.514326 -0.566773,0.568478 -0.258774,0.05791 -0.886773,0.02407 -1.108436,-0.05972 -0.229401,-0.08672 -0.558913,-0.08093 -0.740783,0.01303 -0.07916,0.0409 -0.219148,0.15168 -0.31109,0.246188 -0.122621,0.126045 -0.227956,0.191557 -0.395294,0.245847 -0.368958,0.119703 -0.530513,0.124783 -0.886951,0.02789 z m -0.282353,-1.72724 c 0.08282,-0.04144 0.217204,-0.109326 0.298622,-0.150862 0.226392,-0.115492 0.526652,-0.128539 0.766301,-0.0333 0.376693,0.149706 0.718936,0.07009 0.953525,-0.22183 0.114983,-0.14308 0.634947,-0.52079 0.793083,-0.576107 0.03481,-0.01218 0.238108,-0.04127 0.451765,-0.06465 0.213658,-0.02338 0.456234,-0.07309 0.539057,-0.11048 0.232743,-0.105059 0.418161,-0.32686 0.561334,-0.67148 0.196277,-0.472443 0.467713,-0.776774 0.729186,-0.817555 0.426986,-0.0666 0.649632,-0.205536 0.814096,-0.508025 0.1043,-0.191833 0.11042,-0.229741 0.133247,-0.825332 l 0.02392,-0.624264 0.15487,-0.225882 c 0.08518,-0.124235 0.25087,-0.34447 0.368202,-0.489412 0.117332,-0.144941 0.246349,-0.327004 0.286704,-0.404585 0.156379,-0.300632 0.130609,-0.622227 -0.07485,-0.934113 -0.06057,-0.09195 -0.121661,-0.24533 -0.135748,-0.340842 -0.03289,-0.223019 0.05628,-0.578917 0.214231,-0.85498 0.146596,-0.256223 0.186943,-0.460979 0.137143,-0.695981 -0.03144,-0.148365 -0.088,-0.234151 -0.31297,-0.474715 -0.296581,-0.317135 -0.299851,-0.325055 -0.358691,-0.868901 -0.04927,-0.455399 -0.120053,-0.700178 -0.257224,-0.889537 -0.110229,-0.152168 -0.382745,-0.390463 -0.446535,-0.390463 -0.05163,0 -0.220667,-0.191212 -0.282897,-0.32 -0.03001,-0.06212 -0.07628,-0.214589 -0.102811,-0.338824 -0.09286,-0.434807 -0.218277,-0.560156 -0.71788,-0.717464 -0.372593,-0.117316 -0.509844,-0.181494 -0.639214,-0.298892 -0.05176,-0.04697 -0.202244,-0.112239 -0.334398,-0.145033 -0.151695,-0.03764 -0.260385,-0.08833 -0.294811,-0.137477 -0.09142,-0.130521 -0.240445,-0.256059 -0.58603,-0.493665 -0.274977,-0.189061 -0.364557,-0.23077 -0.532964,-0.248151 -0.111338,-0.01149 -0.254728,-0.0027 -0.318646,0.01962 -0.100622,0.03508 -0.121475,0.03068 -0.155419,-0.03274 -0.0334,-0.0624 -0.07946,-0.07306 -0.310821,-0.07192 -0.301611,0.0015 -0.383179,0.03465 -0.536295,0.21806 -0.148677,0.178096 -0.155871,0.375627 -0.03794,1.041782 0.122788,0.69358 0.213034,0.904239 0.511211,1.193304 l 0.224345,0.217489 8.28e-4,0.518133 c 8.74e-4,0.547875 0.04856,0.74417 0.226954,0.934209 0.08036,0.0856 0.148689,0.385542 0.148689,0.652656 0,0.166619 -0.0067,0.177315 -0.163724,0.260605 -0.313675,0.166404 -0.405454,0.46523 -0.304049,0.989963 0.05748,0.297433 0.06056,0.384392 0.02172,0.613621 -0.06746,0.398193 -0.259005,0.775938 -0.46243,0.911968 -0.247337,0.165394 -0.389257,0.40544 -0.483005,0.816961 -0.164396,0.721643 -0.430436,1.074417 -1.052579,1.395741 -0.600516,0.310155 -0.710552,0.453491 -0.813523,1.059721 -0.03498,0.205949 -0.08552,0.416805 -0.112316,0.46857 -0.02679,0.05176 -0.207585,0.262094 -0.401764,0.467398 l -0.353052,0.37328 -0.544699,-0.08201 c -0.299584,-0.04511 -0.632505,-0.08179 -0.739825,-0.08152 -0.18389,4.67e-4 -0.202733,0.0098 -0.327224,0.161702 -0.214105,0.261286 -0.252991,0.426579 -0.167493,0.711946 0.05559,0.185554 0.28746,0.452332 0.467318,0.53768 0.0754,0.03578 0.28402,0.09516 0.463588,0.131949 0.179569,0.03679 0.42885,0.118563 0.553959,0.181717 0.370776,0.187167 0.652069,0.24538 1.162626,0.240601 0.331637,-0.0031 0.521839,0.01437 0.715294,0.06571 0.291136,0.07727 0.4157,0.06882 0.64,-0.0434 z M 9.1607612,26.109662 c 0.1676322,-0.08913 0.1805004,-0.09047 0.3350189,-0.03488 0.1208418,0.04348 0.2447135,0.05237 0.499514,0.03587 0.1863529,-0.01207 0.5981199,-0.03092 0.9150369,-0.04189 0.520633,-0.01802 0.607013,-0.03109 0.895517,-0.135482 0.363122,-0.131392 0.758403,-0.378569 1.088276,-0.680518 l 0.225888,-0.206767 0.395288,-0.01789 c 0.447182,-0.02023 0.685007,-0.101226 0.896595,-0.305336 0.194368,-0.187499 0.266896,-0.332096 0.364713,-0.727127 0.04986,-0.201359 0.11258,-0.387642 0.139377,-0.413961 0.0268,-0.02632 0.158839,-0.101757 0.293427,-0.16764 0.496397,-0.24299 0.727873,-0.518438 0.86799,-1.032874 0.100514,-0.369036 0.158648,-0.489165 0.318824,-0.658823 0.311437,-0.329875 0.392796,-0.784321 0.21414,-1.196114 l -0.0861,-0.198466 0.07402,-0.167337 c 0.04071,-0.09204 0.123598,-0.239903 0.184192,-0.328593 0.222789,-0.326091 0.251441,-0.65822 0.0842,-0.97602 -0.07269,-0.13813 -0.08864,-0.235455 -0.100925,-0.615823 -0.01904,-0.589676 -0.106115,-1.019257 -0.235342,-1.161095 -0.25354,-0.278283 -0.679633,-0.332753 -0.955715,-0.122175 -0.121373,0.09258 -0.301919,0.393822 -0.377992,0.630692 -0.01295,0.04032 -0.09364,0.07797 -0.226002,0.105452 -0.382738,0.07946 -0.59828,0.330783 -0.68814,0.802385 -0.02761,0.144927 -0.07567,0.302361 -0.106785,0.349851 -0.08412,0.128384 -0.279866,0.261831 -0.482659,0.329047 -0.298526,0.09895 -0.519484,0.321476 -0.594006,0.598232 -0.04641,0.172356 -0.234168,0.357229 -0.412049,0.40572 -0.07247,0.01975 -0.336183,0.05961 -0.586028,0.08856 -0.253934,0.02943 -0.51957,0.08299 -0.602353,0.121452 -0.08145,0.03784 -0.262207,0.187357 -0.401684,0.332251 l -0.253594,0.263444 -0.329935,0.01553 c -0.247798,0.01166 -0.412682,-0.0042 -0.66232,-0.06367 C 9.2345385,20.788745 9.0070144,20.83535 8.6801544,21.175531 8.5276928,21.334206 8.4545999,21.383366 8.3719153,21.38284 8.1472904,21.381409 7.4872704,21.270198 7.3828028,21.216175 7.3229956,21.185248 7.1518803,21.024629 7.0025468,20.859244 6.8047518,20.64019 6.6848715,20.540917 6.5610248,20.49362 6.3711985,20.42112 6.3474025,20.42442 5.6094118,20.625541 L 5.2141176,20.733266 5.0258824,20.637176 C 4.8731339,20.559202 4.7702219,20.538301 4.48,20.526312 c -0.3208969,-0.01326 -0.375055,-0.0055 -0.5270588,0.07513 -0.1046937,0.05556 -0.2165902,0.15968 -0.2929101,0.272553 l -0.1234984,0.182647 2.522e-4,0.492854 c 1.393e-4,0.27107 -0.00355,0.594501 -0.00819,0.718736 -0.011849,0.317153 0.088308,0.497841 0.5496003,0.991507 0.2229725,0.23862 0.4581673,0.536862 0.5629443,0.713848 0.098981,0.167195 0.2345107,0.350038 0.3011765,0.406316 0.1501797,0.126779 0.391631,0.239278 0.5165048,0.240653 0.2085681,0.0023 0.3799213,0.08592 0.6177883,0.301483 0.2513837,0.227814 0.4246656,0.339134 0.5279002,0.339134 0.031715,0 0.144186,0.09129 0.2499362,0.202857 0.2235475,0.235853 0.3343755,0.290922 0.8404668,0.417622 0.2049088,0.0513 0.4759676,0.14306 0.602353,0.203914 0.3081012,0.14835 0.6137581,0.156878 0.8634932,0.02409 z M 26.164706,23.623529 c 0.03336,-0.0402 0.124195,-0.05695 0.315198,-0.05812 0.332913,-0.0021 0.477766,-0.05265 0.791348,-0.276413 0.304495,-0.217284 0.443188,-0.414202 0.58464,-0.830085 0.136663,-0.4018 0.23543,-0.563978 0.379908,-0.623824 0.167579,-0.06941 0.328709,-0.27515 0.39554,-0.505039 0.03257,-0.112056 0.08368,-0.224031 0.113564,-0.248833 0.13776,-0.114331 0.429321,-0.567607 0.501837,-0.780185 0.09901,-0.290251 0.102019,-0.547858 0.0097,-0.829274 -0.09635,-0.293623 -0.109244,-0.356017 -0.152835,-0.739641 l -0.03791,-0.333641 0.133981,-0.217067 c 0.235404,-0.381385 0.288594,-0.637527 0.196332,-0.94547 -0.04059,-0.135472 -0.179551,-0.287346 -0.407834,-0.445727 -0.101242,-0.07024 -0.146014,-0.396699 -0.149675,-1.091383 -0.002,-0.373989 -0.0168,-0.502125 -0.07225,-0.62422 -0.145447,-0.320243 -0.492679,-0.542839 -0.846786,-0.542839 -0.138037,0 -0.174298,-0.02313 -0.398369,-0.254118 -0.13558,-0.139765 -0.411109,-0.451506 -0.612287,-0.692757 -0.564512,-0.676959 -0.806584,-0.852511 -1.322854,-0.95934 -0.147552,-0.03053 -0.361452,-0.09831 -0.475335,-0.150615 -0.113882,-0.05231 -0.297374,-0.104723 -0.40776,-0.116483 -0.172242,-0.01835 -0.205962,-0.03527 -0.237802,-0.119328 -0.102061,-0.269445 -0.306413,-0.376217 -0.79716,-0.416509 -0.26479,-0.02174 -0.493648,-0.06866 -0.740807,-0.151864 -0.474832,-0.159857 -0.798351,-0.150297 -1.188765,0.03513 -0.226124,0.107396 -0.317991,0.127815 -0.693588,0.154161 -0.445508,0.03125 -0.592348,0.06921 -0.929854,0.24038 -0.107655,0.0546 -0.310949,0.125129 -0.451765,0.156735 -0.494412,0.110969 -0.6723,0.176253 -0.914852,0.335746 -0.134588,0.0885 -0.378871,0.216432 -0.542852,0.284292 -0.235609,0.0975 -0.356757,0.179056 -0.577571,0.388808 -0.158164,0.15024 -0.320403,0.346294 -0.373854,0.451773 -0.222255,0.438599 -0.04198,1.002343 0.382132,1.194992 0.159395,0.0724 0.573446,0.09278 0.716851,0.03528 0.04811,-0.01929 0.116069,-0.009 0.188235,0.02863 0.08654,0.04507 0.240573,0.05935 0.658824,0.06107 0.532139,0.0022 0.550621,0.005 0.734118,0.111462 0.499653,0.289904 0.585998,0.325827 0.963514,0.400852 0.215479,0.04282 0.450668,0.106517 0.522644,0.141543 0.119026,0.05792 0.135264,0.08578 0.179508,0.307958 0.08495,0.426599 0.380243,0.677485 0.798781,0.678666 0.272935,7.68e-4 0.623762,0.08498 0.723252,0.173602 0.129876,0.115689 0.181974,0.293837 0.235465,0.805157 0.07131,0.681655 0.187982,0.848513 0.710949,1.016773 0.291436,0.09377 0.514292,0.248839 0.691501,0.481176 0.155114,0.203369 0.187122,0.376917 0.126346,0.685057 -0.151913,0.770219 -0.06621,0.984225 0.542774,1.355294 0.118935,0.07247 0.24388,0.182588 0.277655,0.244706 0.09092,0.167206 0.08386,0.637428 -0.01214,0.809412 -0.05302,0.09498 -0.07383,0.205332 -0.07455,0.395318 -9.6e-4,0.254956 0.0064,0.27612 0.224889,0.648736 0.124235,0.211851 0.236514,0.385487 0.249508,0.385859 0.01299,3.76e-4 0.04472,-0.02474 0.07049,-0.0558 z M 9.7953156,19.377437 c 0.1976557,-0.09428 0.2504854,-0.102143 0.6862974,-0.102143 0.59039,0 0.709643,-0.04164 1.039332,-0.362949 l 0.24565,-0.239404 0.39435,-3.76e-4 c 0.477263,-4.45e-4 0.676455,-0.07736 0.943064,-0.364137 0.14484,-0.155796 0.206613,-0.192967 0.388252,-0.233615 0.247318,-0.05535 0.440091,-0.202732 0.55195,-0.421994 0.03999,-0.0784 0.175015,-0.257777 0.300045,-0.398628 0.125031,-0.140851 0.259831,-0.323961 0.299557,-0.406911 0.07264,-0.151671 0.280703,-1.182381 0.245741,-1.217343 -0.0103,-0.0103 -0.111808,0.01291 -0.225573,0.05158 -0.171527,0.0583 -0.227793,0.0628 -0.329531,0.02635 -0.06942,-0.02487 -0.474118,-0.0542 -0.932097,-0.06755 -1.051492,-0.03065 -1.412613,-0.08468 -2.117508,-0.31685 C 10.640669,15.111297 10.515386,15.032451 10.346262,14.73278 10.103721,14.303018 9.9182208,14.190721 9.386964,14.152044 8.9650379,14.121326 8.7028175,14.03177 8.6075915,13.885866 8.5759213,13.837341 8.5315972,13.67905 8.5090933,13.534109 8.4473118,13.13619 8.3692853,12.936755 8.200259,12.744731 8.1159307,12.648929 7.9601389,12.526807 7.8540555,12.47335 7.1265178,12.106733 6.9477124,11.824542 7.0636792,11.225977 7.1461372,10.800369 7.1215872,10.317683 7.0061312,10.094502 6.9593796,10.004131 6.8210775,9.8357662 6.698793,9.7203595 6.5765082,9.6049528 6.4586274,9.4565033 6.436835,9.3904719 6.4143258,9.3222682 6.4011697,9.027607 6.406374,8.708236 6.4153736,8.1560045 6.4137152,8.1429512 6.3126498,7.9704956 6.1219531,7.6450963 5.7326246,7.5036401 5.342188,7.617894 5.0721054,7.6969288 4.8889129,7.8560113 4.7046344,8.17154 4.6209973,8.3147464 4.4114285,8.5830931 4.2389259,8.767866 3.8749174,9.1577668 3.7957931,9.3040644 3.693431,9.7764638 3.6023035,10.197015 3.5578864,10.28653 3.2930804,10.583304 3.038022,10.869153 2.996173,11.008469 2.9438581,11.745874 c -0.0213,0.300235 -0.075068,0.695818 -0.1194843,0.879073 -0.068779,0.28377 -0.074591,0.361945 -0.03919,0.527059 0.060963,0.28433 0.1636764,0.4144 0.4980563,0.630706 0.020819,0.01347 -0.00544,0.251115 -0.064489,0.58353 -0.1078768,0.607337 -0.1279957,1.022534 -0.058187,1.200808 0.068864,0.175861 0.2219804,0.312795 0.5288473,0.472954 0.1552941,0.08105 0.4035407,0.243132 0.5516591,0.360183 l 0.2693061,0.212819 0.064701,0.342904 c 0.1258594,0.667039 0.2734924,0.843508 0.8690621,1.038807 0.5162507,0.16929 0.6316201,0.24488 1.0251079,0.671657 0.4215835,0.45725 0.6055048,0.556232 0.9646641,0.519161 0.7667339,-0.07914 0.6896452,-0.08561 1.0772552,0.09037 0.4480414,0.203411 0.5253794,0.223324 0.8253037,0.212499 0.1748002,-0.0063 0.3058797,-0.03801 0.458845,-0.110975 z m 4.4700264,-4.204196 c 0.147964,-0.07549 0.680178,-0.625627 0.680411,-0.703331 7.6e-5,-0.02367 -0.02375,-0.0522 -0.05295,-0.0634 -0.02919,-0.0112 -0.08087,-0.115964 -0.114834,-0.232805 -0.03967,-0.136471 -0.11327,-0.268617 -0.20581,-0.369542 -0.07923,-0.08641 -0.237593,-0.302511 -0.35192,-0.48023 -0.114327,-0.177719 -0.301952,-0.424748 -0.416945,-0.548954 l -0.209077,-0.225828 0.101499,-0.241635 c 0.0879,-0.209257 0.101302,-0.29208 0.100026,-0.618105 -0.0013,-0.344272 -0.01179,-0.398134 -0.122138,-0.629762 -0.06637,-0.13931 -0.120665,-0.273576 -0.120665,-0.298368 0,-0.02479 0.05921,-0.164929 0.131568,-0.311415 0.07236,-0.146486 0.159793,-0.396456 0.19429,-0.55549 0.05935,-0.2736116 0.05907,-0.3029507 -0.0052,-0.5458823 -0.03733,-0.1412013 -0.06623,-0.3022905 -0.06422,-0.3579757 0.0063,-0.1737303 0.214216,-0.5245448 0.527981,-0.8907426 0.348388,-0.406606 0.418068,-0.5841491 0.342734,-0.8732785 -0.110303,-0.4233367 -0.08179,-0.6491204 0.120549,-0.9545965 0.146794,-0.22162 0.404709,-0.3958837 0.818576,-0.5530846 0.484114,-0.183883 0.655947,-0.4029523 0.737681,-0.9404676 0.01126,-0.074026 0.102205,-0.2603788 0.202108,-0.4141178 0.0999,-0.1537391 0.264868,-0.439852 0.366589,-0.6358064 C 17.09668,3.3988441 17.110439,3.3522907 17.109191,3.1072475 17.107691,2.8058896 17.047491,2.6591974 16.834108,2.4365046 16.625875,2.2191432 16.449344,2.1814 15.529412,2.1575448 c -0.669126,-0.017352 -0.897014,-0.00778 -1.483305,0.062295 -0.380993,0.045538 -0.736683,0.099512 -0.790421,0.1199436 -0.241905,0.091972 -0.44061,0.3269823 -0.505448,0.5977976 -0.02031,0.084822 -0.07512,0.1113811 -0.501593,0.2430454 -0.889509,0.2746171 -1.12331,0.4437604 -1.495243,1.0817325 -0.171847,0.294766 -0.262601,0.4055097 -0.466886,0.5697202 C 10.14705,4.9441864 9.9873107,5.0844777 9.9315403,5.1438377 9.7680956,5.3178014 9.6366901,5.6540179 9.577094,6.0507287 9.5296312,6.3666737 9.4980826,6.4576177 9.3458861,6.7172243 9.138304,7.0713032 9.0986044,7.3344614 9.2008369,7.6787162 c 0.065227,0.2196439 0.085993,0.9801073 0.026764,0.9801073 -0.075861,0 -0.4148999,0.349466 -0.4862027,0.5011562 -0.120102,0.255506 -0.1883185,0.6506609 -0.1573557,0.9115083 0.034545,0.291024 0.1361047,0.486524 0.4094152,0.788111 0.2189843,0.241641 0.2677188,0.352177 0.2677188,0.607224 0,0.166683 0.1268152,0.498474 0.2616851,0.684656 0.059757,0.08249 0.2085869,0.226887 0.3307324,0.320876 0.221547,0.170476 0.280308,0.258089 0.473397,0.705833 0.184126,0.426962 0.505559,0.681716 0.955553,0.757328 0.269297,0.04525 0.28494,0.05368 0.406231,0.21891 0.19549,0.266312 0.422161,0.404973 0.931542,0.569852 0.333413,0.107921 0.509215,0.188074 0.648935,0.295867 0.249203,0.192259 0.329672,0.221656 0.614601,0.224527 0.164715,0.0017 0.280838,-0.02008 0.381489,-0.07143 z m 1.961401,-1.439143 c 0.09479,-0.05179 0.231399,-0.219545 0.478837,-0.587989 0.190417,-0.283537 0.45516,-0.652751 0.588318,-0.820476 0.226803,-0.28568 0.25306,-0.306457 0.415401,-0.328708 0.362597,-0.0497 0.582442,-0.23206 0.777525,-0.644953 0.199399,-0.422029 0.356851,-0.507093 0.941637,-0.508721 0.454229,-0.0013 0.669095,-0.07376 0.893109,-0.301336 0.23797,-0.241753 0.499161,-0.369344 0.865341,-0.422715 0.27264,-0.03974 0.320154,-0.03615 0.60287,0.04554 0.27115,0.07835 0.328955,0.08359 0.496183,0.04499 0.104104,-0.02403 0.312114,-0.113317 0.462246,-0.198417 0.30691,-0.173967 0.527031,-0.2226356 1.007084,-0.2226653 0.352334,-2.19e-5 0.35817,0.00243 0.738804,0.3102063 0.282186,0.228174 0.513001,0.307289 0.898843,0.308089 0.244034,5.04e-4 0.335073,-0.01652 0.479829,-0.08975 l 0.178653,-0.09037 0.348406,0.117477 c 0.591129,0.199318 0.809565,0.24244 1.157565,0.228514 0.374682,-0.01499 0.516613,-0.09046 0.645588,-0.343274 0.06499,-0.127398 0.0758,-0.201599 0.06122,-0.4203595 C 28.2491,9.5826507 28.212667,9.471456 28.016805,9.0541176 27.795854,8.5833212 27.787311,8.5539663 27.792194,8.2823529 27.795729,8.0858504 27.778597,7.9644973 27.735853,7.8832354 27.654601,7.7287654 27.431216,7.5357948 27.302839,7.5091772 27.002295,7.4468634 26.804311,7.2532476 26.615637,6.8371373 26.385182,6.3288783 26.162217,6.1839906 25.542451,6.1397549 25.306059,6.1228823 25.128543,6.0917 25.090865,6.0604296 25.056719,6.0320911 24.962878,5.8778308 24.88233,5.7176286 24.619105,5.1940988 24.309705,5.0663428 23.708515,5.2329412 23.389383,5.3213771 22.908322,5.3328772 22.72539,5.2564427 22.657213,5.2279571 22.517164,5.1441092 22.414169,5.0701146 22.311174,4.9961197 22.145858,4.900838 22.046802,4.8583774 21.73703,4.725594 21.319613,4.770473 21.132313,4.9567002 c -0.209502,0.2083016 -0.26499,0.2297574 -0.661631,0.2558382 -0.473857,0.031158 -0.718966,0.096395 -0.926193,0.2465091 -0.08742,0.063325 -0.213396,0.1255281 -0.279951,0.1382284 -0.118733,0.022656 -0.302375,0.1113641 -0.619049,0.2990294 -0.115397,0.068386 -0.255271,0.1054457 -0.508235,0.1346564 -0.482464,0.055712 -0.597173,0.08823 -0.805609,0.2283735 -0.242699,0.16318 -0.375537,0.392841 -0.486266,0.8406923 -0.124004,0.5015431 -0.167266,0.5546379 -0.47731,0.5857957 -0.380406,0.038229 -0.638656,0.2343473 -0.735939,0.5588827 -0.02172,0.072471 -0.04922,0.3011765 -0.0611,0.5082353 -0.0278,0.4843452 -0.04394,0.5345223 -0.195082,0.6062422 -0.375092,0.1779931 -0.519665,0.5638784 -0.371101,0.9905196 0.06794,0.195121 0.03061,0.529497 -0.09604,0.860113 -0.107908,0.2817 -0.09692,0.568462 0.03417,0.892135 0.08366,0.206548 0.09916,0.28612 0.07332,0.376222 -0.04502,0.156983 -0.04079,0.536145 0.0079,0.711651 0.04544,0.163654 0.292424,0.451262 0.465568,0.54215 0.247169,0.129744 0.502029,0.130479 0.736931,0.0021 z"
     style="fill:#ffffff;stroke-width:0.0376471" />
  <path
     id="path44"
     d="m 16,29.599104 c -0.05176,-0.0069 -0.170353,-0.03681 -0.263529,-0.06635 -0.115797,-0.03672 -0.318343,-0.05142 -0.64,-0.04644 -0.522698,0.0081 -0.740961,-0.03825 -1.146268,-0.243314 -0.127477,-0.0645 -0.379742,-0.144794 -0.57265,-0.182276 -0.402287,-0.07817 -0.508814,-0.127531 -0.698068,-0.323496 -0.317336,-0.328589 -0.330525,-0.647416 -0.04175,-1.009329 0.09805,-0.122887 0.120958,-0.132576 0.312856,-0.132331 0.113883,1.51e-4 0.368,0.02565 0.564706,0.05667 0.196706,0.03102 0.439227,0.06728 0.538936,0.08056 l 0.181289,0.02416 0.29484,-0.318047 c 0.50603,-0.545859 0.482718,-0.505572 0.582703,-1.007026 0.119316,-0.598404 0.203655,-0.724509 0.633371,-0.947025 0.368295,-0.190711 0.603614,-0.356653 0.7927,-0.558996 0.21351,-0.228479 0.300557,-0.410871 0.420436,-0.880957 0.04854,-0.190344 0.105478,-0.390786 0.126527,-0.445427 0.05136,-0.133322 0.246087,-0.350816 0.39834,-0.444914 0.149135,-0.09217 0.331868,-0.441966 0.41489,-0.7942 0.07353,-0.311945 0.07265,-0.457709 -0.0049,-0.810459 -0.05314,-0.241823 -0.05578,-0.315195 -0.01663,-0.461564 0.06148,-0.229852 0.198962,-0.403862 0.367146,-0.464677 l 0.136586,-0.04939 -0.02466,-0.357724 c -0.02222,-0.322334 -0.03713,-0.376345 -0.150714,-0.545959 -0.185051,-0.276337 -0.210897,-0.391949 -0.210897,-0.943377 v -0.4992 l -0.226651,-0.217707 c -0.304105,-0.292104 -0.390449,-0.487201 -0.50581,-1.142906 -0.114251,-0.649389 -0.117612,-0.771007 -0.02607,-0.943279 0.114805,-0.216041 0.276066,-0.30059 0.573323,-0.30059 0.224104,0 0.258417,0.0094 0.279822,0.07687 0.01914,0.06032 0.04198,0.07045 0.106066,0.04706 0.04492,-0.01639 0.184393,-0.02981 0.309945,-0.02981 0.213196,0 0.2492,0.01368 0.545086,0.207059 0.174248,0.113882 0.413128,0.30447 0.530845,0.423529 0.117717,0.119059 0.243168,0.216471 0.27878,0.216471 0.14483,0 0.381467,0.09411 0.489676,0.194754 0.07457,0.06935 0.2599,0.155296 0.527059,0.244409 0.321858,0.107359 0.442222,0.167408 0.549922,0.274353 0.134261,0.13332 0.146519,0.163174 0.296191,0.721387 0.04812,0.179472 0.162777,0.320354 0.331842,0.407746 0.2712,0.140189 0.560941,0.517701 0.6228,0.811469 0.01308,0.06212 0.0485,0.314165 0.07871,0.560106 0.05976,0.486508 0.09112,0.558674 0.324099,0.745855 0.17402,0.139812 0.314731,0.362314 0.349879,0.553254 0.03106,0.168738 -0.03167,0.389333 -0.185376,0.651916 -0.225529,0.385272 -0.252238,0.874413 -0.06292,1.152399 0.294737,0.432788 0.265751,0.70438 -0.130114,1.219115 -0.132246,0.171957 -0.320431,0.429609 -0.418188,0.57256 l -0.17774,0.259911 -0.0228,0.605972 c -0.01254,0.333283 -0.04335,0.656719 -0.06846,0.718745 -0.122511,0.302551 -0.393807,0.522587 -0.719026,0.583169 -0.316724,0.059 -0.396607,0.10452 -0.586071,0.333971 -0.178474,0.216142 -0.226106,0.302857 -0.336559,0.612723 -0.149833,0.420345 -0.451008,0.61016 -1.071784,0.675493 -0.302184,0.0318 -0.435199,0.06427 -0.564706,0.137841 -0.277522,0.157656 -0.537573,0.354837 -0.675546,0.512227 -0.143438,0.163624 -0.37593,0.286175 -0.545313,0.287445 -0.06065,4.56e-4 -0.226055,-0.03646 -0.367571,-0.08204 -0.234224,-0.07544 -0.280557,-0.07888 -0.516597,-0.0384 -0.165115,0.02831 -0.327495,0.08686 -0.447055,0.161181 C 16.335213,29.56644 16.153518,29.61971 16,29.599104 Z"
     style="fill:#000000;stroke-width:0.0376471" />
  <path
     id="path68"
     d="M 8.5082353,26.074115 C 8.2088745,25.951128 7.8309892,25.823964 7.5389478,25.747936 7.2584969,25.674926 7.2030654,25.644321 6.9655532,25.431348 6.8209415,25.301678 6.6557092,25.186102 6.5983703,25.174514 6.5410313,25.162926 6.3585882,25.040538 6.1929412,24.90254 5.835855,24.605059 5.8269822,24.599931 5.6094118,24.565333 5.3831714,24.529357 5.1255203,24.414135 4.9931618,24.289746 4.9337538,24.233915 4.7969738,24.052507 4.6892062,23.886617 4.5814387,23.720727 4.328673,23.398845 4.1275047,23.171323 3.9263364,22.943801 3.7172731,22.667078 3.6629197,22.556383 3.568134,22.363343 3.5660167,22.345451 3.611112,22.118578 3.642065,21.962852 3.64911,21.766754 3.631732,21.54461 3.600519,21.145612 3.663046,20.953525 3.8886024,20.755486 c 0.2313137,-0.203093 0.7007837,-0.215161 1.1164105,-0.0287 l 0.2091044,0.09381 0.5642748,-0.154745 c 0.7133957,-0.195639 0.7220527,-0.193762 1.1546952,0.250444 0.1726841,0.177299 0.3563242,0.344462 0.4080889,0.371472 0.1290552,0.06734 0.6021888,0.142538 0.9301748,0.147842 L 8.5427031,21.44 8.7419396,21.246363 c 0.352009,-0.342114 0.4568041,-0.365209 1.0685338,-0.235492 0.2885236,0.06118 0.4524646,0.07463 0.7234996,0.05936 l 0.350443,-0.01975 0.296793,-0.283554 c 0.334503,-0.319582 0.447533,-0.367448 1.035262,-0.438408 0.669841,-0.08087 0.834181,-0.166057 0.949398,-0.492099 0.104079,-0.294526 0.247501,-0.439383 0.591754,-0.597676 0.403262,-0.185426 0.514491,-0.314386 0.597674,-0.69295 0.03528,-0.160538 0.0888,-0.339586 0.118951,-0.397884 0.08608,-0.166459 0.270879,-0.298666 0.516704,-0.369653 l 0.226171,-0.06531 0.142894,-0.282353 c 0.198997,-0.393211 0.362773,-0.527059 0.644909,-0.527059 0.238428,0 0.499237,0.228535 0.579384,0.507687 0.02981,0.103831 0.07128,0.447432 0.09216,0.763557 0.03108,0.470575 0.05302,0.603659 0.121047,0.734117 0.05559,0.106618 0.08346,0.227862 0.0842,0.366404 9.78e-4,0.181629 -0.02279,0.248672 -0.193549,0.545882 -0.24924,0.433818 -0.260075,0.484268 -0.158141,0.736352 0.10516,0.260063 0.112645,0.603876 0.01716,0.788354 -0.03751,0.07247 -0.131275,0.208 -0.208366,0.301177 -0.17655,0.213385 -0.232233,0.325501 -0.336557,0.677647 -0.152952,0.516286 -0.337907,0.738217 -0.848984,1.018712 -0.157821,0.08662 -0.309851,0.193548 -0.337844,0.237623 -0.02799,0.04407 -0.07113,0.181783 -0.09586,0.306018 -0.06891,0.346199 -0.178491,0.564501 -0.376212,0.749446 -0.249582,0.233455 -0.401562,0.288874 -0.860133,0.313647 -0.38469,0.02078 -0.391953,0.02292 -0.564705,0.166539 -0.568011,0.472212 -0.948302,0.698663 -1.351495,0.804768 -0.307444,0.08091 -1.8572524,0.122642 -2.0938965,0.05639 -0.1577295,-0.04416 -0.1830559,-0.0413 -0.3129292,0.03533 -0.1781737,0.105125 -0.47655,0.133017 -0.651977,0.06095 z"
     style="fill:#000000;stroke-width:0.0376471" />
  <path
     id="path70"
     d="M 8.8847059,19.339555 C 8.7501176,19.29042 8.5695544,19.213956 8.4834549,19.169636 8.2569856,19.05306 8.0709658,19.034554 7.6473013,19.086453 7.1258127,19.150334 7.0963994,19.137206 6.5182813,18.582528 6.0457649,18.129171 6.0350328,18.12164 5.6833355,17.996635 5.1527139,17.808034 4.9832682,17.713442 4.8703296,17.54278 4.7823173,17.409784 4.5942402,16.794964 4.593296,16.637162 4.5928259,16.558595 4.1726702,16.220696 3.8308786,16.024008 3.6806013,15.93753 3.5118907,15.836053 3.4559664,15.798504 3.3060357,15.697838 3.2,15.450118 3.2,15.200518 3.2,14.995647 3.3656319,13.921148 3.4077063,13.85307 3.4305523,13.8161 3.3599653,13.741539 3.1487306,13.579499 2.8698167,13.365542 2.808061,13.092599 2.9196822,12.567167 2.9518602,12.415696 3.0017412,12.026654 3.030528,11.702629 3.059315,11.378605 3.106996,11.056722 3.1364847,10.987335 3.1659737,10.917945 3.2792616,10.751059 3.3882353,10.616471 3.6213091,10.328612 3.6655348,10.233539 3.768984,9.7979621 3.8707712,9.3693836 3.9244712,9.2721014 4.2938854,8.8470588 4.4648469,8.6503529 4.6761877,8.3781943 4.7635316,8.2422619 5.1476067,7.6445293 5.6511832,7.4869325 6.0710898,7.833055 c 0.221612,0.1826713 0.2536161,0.2971266 0.2536161,0.9070008 0,0.2972427 0.016399,0.5976196 0.036441,0.6675043 0.020261,0.070646 0.1374612,0.2322649 0.263959,0.363999 0.4067591,0.4235979 0.4776391,0.7013219 0.361533,1.4165729 -0.066452,0.409363 -0.042371,0.59445 0.1059083,0.814025 0.1108518,0.164152 0.1927872,0.226835 0.8214471,0.628431 0.2879232,0.183929 0.4052217,0.392205 0.5179784,0.919726 0.049848,0.233207 0.1036397,0.384563 0.1567751,0.441123 0.112392,0.119636 0.3938922,0.204782 0.7838084,0.237081 0.406353,0.03366 0.5772883,0.114761 0.7545028,0.357976 0.07247,0.09946 0.183376,0.250563 0.246457,0.33578 0.144982,0.195862 0.312607,0.290301 0.80766,0.455034 0.75054,0.249747 0.955809,0.283437 1.957648,0.321293 0.507294,0.01917 1.025584,0.05505 1.151757,0.07974 0.174597,0.03417 0.259253,0.03449 0.35434,0.0013 0.06871,-0.02395 0.133413,-0.03507 0.143775,-0.02471 0.02975,0.02975 -0.145991,0.849892 -0.217874,1.016794 -0.03567,0.08282 -0.145701,0.243764 -0.244513,0.357647 -0.09881,0.113882 -0.253364,0.320675 -0.343451,0.459539 -0.171704,0.264671 -0.26958,0.336319 -0.589029,0.431186 -0.132395,0.03932 -0.256394,0.120021 -0.42406,0.276001 -0.280566,0.26101 -0.397403,0.301012 -0.880031,0.301299 l -0.352616,2.26e-4 -0.224441,0.207793 c -0.358325,0.331746 -0.449547,0.36488 -1.084446,0.393896 -0.4565921,0.02087 -0.5719777,0.03844 -0.7054188,0.107453 -0.2483708,0.128444 -0.5443426,0.140015 -0.8381105,0.03277 z"
     style="fill:#000000;stroke-width:0.0376471" />
  <path
     id="path72"
     d="m 13.475982,15.042194 c -0.333584,-0.210438 -0.534886,-0.311745 -0.71426,-0.359459 -0.09283,-0.02469 -0.29173,-0.09581 -0.442001,-0.158033 -0.224766,-0.09307 -0.312383,-0.156528 -0.494046,-0.357809 C 11.617032,13.935719 11.591052,13.919328 11.354746,13.869795 10.85699,13.765456 10.615236,13.554597 10.32244,12.969412 10.161753,12.648262 10.094656,12.557856 9.8658263,12.354175 9.5412372,12.06526 9.3869285,11.789056 9.3396212,11.412299 9.3009835,11.104587 9.2515525,11.003196 9.0008112,10.717345 8.7008094,10.375337 8.6776471,10.315215 8.6776471,9.8785231 c 0,-0.3602458 0.00695,-0.3939448 0.1317647,-0.6390464 C 8.9083984,9.0450963 8.9903436,8.9440576 9.1388235,8.8333101 L 9.3364706,8.6858903 9.3358825,8.2864745 C 9.3355591,8.066796 9.3107508,7.7854118 9.280753,7.6611765 9.1896451,7.2838551 9.2044334,7.1830912 9.4077893,6.7955772 9.5415756,6.5406347 9.6041733,6.3687548 9.6363099,6.1681088 9.7365321,5.5423675 9.8817354,5.2739261 10.312961,4.9171642 10.545993,4.7243723 10.650112,4.601598 10.833093,4.3038362 11.066423,3.9241419 11.331402,3.6378217 11.561141,3.5171497 11.63169,3.4800933 11.934138,3.3709248 12.233249,3.274553 l 0.543837,-0.1752215 0.04957,-0.1487133 c 0.0599,-0.1797097 0.24338,-0.4102289 0.384665,-0.4832901 0.127044,-0.065697 0.625903,-0.1518474 1.226325,-0.2117794 0.508146,-0.050721 1.733997,-0.020946 2.011184,0.04885 0.318999,0.080325 0.605287,0.4854015 0.605287,0.8564373 0,0.1267305 -0.207752,0.5583984 -0.508051,1.0556343 -0.168123,0.2783776 -0.252068,0.4621035 -0.283816,0.6211765 -0.05241,0.262606 -0.143343,0.456147 -0.267999,0.5704229 -0.0486,0.044556 -0.300957,0.1827257 -0.560787,0.3070436 -0.538094,0.2574568 -0.69474,0.3980888 -0.821858,0.7378438 -0.09545,0.2551247 -0.10016,0.434211 -0.01981,0.7540698 0.05739,0.228483 0.05673,0.246173 -0.0152,0.4030313 -0.04138,0.090232 -0.196916,0.3080591 -0.34564,0.4840591 -0.268354,0.3175699 -0.402164,0.5361111 -0.484888,0.7919308 -0.03566,0.110272 -0.02979,0.1837157 0.03422,0.4281103 0.09403,0.3590087 0.06683,0.541402 -0.156439,1.0487566 -0.08041,0.182725 -0.146199,0.358292 -0.146199,0.390149 0,0.03186 0.05082,0.18485 0.112943,0.339984 0.06358,0.15878 0.123168,0.39208 0.136337,0.533775 0.02048,0.220371 0.0088,0.293555 -0.0938,0.587768 -0.132116,0.378829 -0.137738,0.352039 0.14157,0.674753 0.08342,0.09638 0.231604,0.28935 0.329309,0.428827 0.09771,0.139476 0.266616,0.372182 0.375357,0.517123 0.10874,0.144941 0.209385,0.314353 0.223655,0.376471 0.01427,0.06212 0.0511,0.153149 0.08185,0.202291 0.05412,0.08649 0.04645,0.09886 -0.239692,0.386689 -0.308963,0.310787 -0.423379,0.370412 -0.71154,0.37081 -0.108876,1.5e-4 -0.210771,-0.0367 -0.357647,-0.129361 z"
     style="fill:#000000;stroke-width:0.0376471" />
  <path
     id="path74"
     d="m 15.531163,13.657812 c -0.180415,-0.104826 -0.380037,-0.357561 -0.432975,-0.548175 -0.04867,-0.175229 -0.05038,-0.44114 -0.0039,-0.603249 0.02871,-0.100108 0.01435,-0.187814 -0.07529,-0.459837 -0.131406,-0.39875 -0.136223,-0.517273 -0.03302,-0.812422 0.138382,-0.395748 0.160948,-0.638225 0.08816,-0.947307 -0.05455,-0.231627 -0.05723,-0.2982953 -0.01733,-0.431453 0.05026,-0.167762 0.212214,-0.3481009 0.402643,-0.4483591 0.132773,-0.069903 0.14297,-0.1066315 0.199893,-0.7199789 0.02066,-0.2226037 0.06254,-0.4530301 0.09306,-0.5120587 0.12685,-0.2453021 0.42927,-0.4189633 0.730477,-0.4194682 0.199444,-3.344e-4 0.317135,-0.1497172 0.415406,-0.5272688 0.111002,-0.4264601 0.213679,-0.6454052 0.377551,-0.8050738 0.184038,-0.1793186 0.324805,-0.231009 0.832156,-0.3055731 0.455816,-0.06699 0.463941,-0.069723 0.790815,-0.2660099 0.113882,-0.068386 0.282561,-0.1439755 0.374843,-0.1679762 0.09228,-0.024001 0.239116,-0.092716 0.3263,-0.1526999 0.200047,-0.1376353 0.496498,-0.2153581 0.940452,-0.246565 0.32784,-0.023045 0.358858,-0.032735 0.537423,-0.1678857 0.104227,-0.078886 0.240215,-0.1696535 0.302196,-0.2017053 0.253423,-0.1310501 0.581466,-0.042974 1.065495,0.2860748 0.229258,0.1558521 0.247894,0.1614808 0.583642,0.1762791 0.267428,0.011787 0.433328,-0.00433 0.724713,-0.070393 0.324265,-0.073521 0.399347,-0.079251 0.529096,-0.040377 0.21498,0.06441 0.383215,0.2279289 0.538466,0.5233732 0.195021,0.3711256 0.216982,0.3848823 0.678387,0.4249468 0.217405,0.018878 0.438113,0.050607 0.490461,0.07051 0.183967,0.069944 0.405103,0.3143193 0.555991,0.6144215 0.165685,0.3295316 0.412751,0.6039761 0.581057,0.6454493 0.06067,0.014949 0.18233,0.069105 0.270365,0.1203461 0.22313,0.1298754 0.310524,0.3148378 0.310524,0.6572017 0,0.2490136 0.01711,0.3067663 0.229205,0.7734844 0.211988,0.4664938 0.229204,0.524561 0.229204,0.7730835 0,0.2998752 -0.04885,0.3986282 -0.273635,0.5531942 -0.200393,0.137793 -0.617014,0.104003 -1.303028,-0.105682 l -0.534726,-0.163441 -0.195001,0.08104 c -0.145958,0.06066 -0.271851,0.08083 -0.500568,0.08021 -0.371674,-10e-4 -0.50993,-0.05701 -0.93915,-0.3804376 L 24.113259,9.702501 23.599943,9.722822 23.086627,9.743143 22.685092,9.9427401 c -0.452688,0.2250249 -0.548344,0.2381549 -0.934015,0.1282039 -0.226341,-0.06453 -0.286519,-0.06751 -0.559602,-0.0277 -0.380115,0.0554 -0.679406,0.189006 -0.899725,0.401636 -0.232247,0.224141 -0.353818,0.276699 -0.699935,0.302594 -0.766132,0.05732 -0.765669,0.05723 -0.904713,0.17931 -0.07239,0.06356 -0.197833,0.236206 -0.278758,0.383654 -0.08092,0.147448 -0.183996,0.307653 -0.229048,0.356012 -0.09567,0.102691 -0.430827,0.266774 -0.545999,0.267306 -0.0438,1.88e-4 -0.123088,0.03455 -0.176206,0.07634 -0.106353,0.08366 -0.561311,0.689995 -0.924307,1.231854 -0.128154,0.191301 -0.277118,0.376723 -0.33103,0.412048 -0.05391,0.03532 -0.193365,0.07009 -0.309896,0.07726 -0.168565,0.01037 -0.242296,-0.0046 -0.36071,-0.07344 z"
     style="fill:#000000;stroke-width:0.0376471" />
  <path
     id="path76"
     d="m 25.995285,23.378809 c -0.322844,-0.511419 -0.359819,-0.69084 -0.224454,-1.08918 0.08445,-0.2485 0.09956,-0.346678 0.08373,-0.543876 -0.02609,-0.324975 -0.106371,-0.443941 -0.461622,-0.684025 -0.477842,-0.322933 -0.564749,-0.523327 -0.455679,-1.050732 0.08126,-0.392945 0.0758,-0.53223 -0.0296,-0.754525 -0.146415,-0.3088 -0.390128,-0.504183 -0.826042,-0.662233 -0.241893,-0.0877 -0.450231,-0.249907 -0.537336,-0.41835 -0.03112,-0.06017 -0.08081,-0.304734 -0.110422,-0.543469 -0.02961,-0.238734 -0.07087,-0.497267 -0.09167,-0.574516 -0.07127,-0.264671 -0.311191,-0.403034 -0.761008,-0.438873 -0.561196,-0.04471 -0.80625,-0.227205 -0.908799,-0.676784 -0.03197,-0.14014 -0.08039,-0.268926 -0.107608,-0.286191 -0.06529,-0.04142 -0.356884,-0.122962 -0.717339,-0.200607 -0.160259,-0.03452 -0.388965,-0.114584 -0.508235,-0.177916 -0.634536,-0.336941 -0.543525,-0.310596 -1.119156,-0.323956 -0.337923,-0.0078 -0.578869,-0.03156 -0.668659,-0.06582 -0.101123,-0.03858 -0.1676,-0.04321 -0.237745,-0.01654 -0.152917,0.05814 -0.435885,0.04196 -0.600706,-0.03435 -0.404891,-0.187459 -0.577634,-0.649061 -0.394192,-1.053353 0.127371,-0.280714 0.509053,-0.616819 0.929599,-0.818595 0.202468,-0.09714 0.418946,-0.213897 0.481064,-0.259454 0.209725,-0.153813 0.425184,-0.242303 0.815762,-0.335035 0.213919,-0.05079 0.54444,-0.161591 0.734492,-0.246226 0.311048,-0.138518 0.389981,-0.157287 0.790588,-0.187986 0.37908,-0.02905 0.482712,-0.05179 0.699215,-0.15344 0.381415,-0.179074 0.602944,-0.186733 1.102827,-0.03813 0.224221,0.06666 0.5648,0.136059 0.756844,0.154229 0.465254,0.04402 0.576474,0.09515 0.722222,0.332017 0.105953,0.172196 0.132445,0.192637 0.249663,0.192637 0.07212,0 0.254397,0.04855 0.405054,0.107898 0.150657,0.05934 0.404915,0.136668 0.565019,0.171832 0.488925,0.107382 0.734867,0.311055 1.628902,1.348953 0.390093,0.452865 0.525639,0.55459 0.739807,0.555215 0.276299,8.06e-4 0.654425,0.263991 0.753663,0.524568 0.02016,0.05293 0.05247,0.401181 0.07181,0.773887 0.01934,0.372706 0.05303,0.73186 0.07489,0.798121 0.02477,0.0751 0.108133,0.169615 0.221342,0.250948 0.131227,0.09428 0.19973,0.177917 0.246918,0.301477 0.103673,0.271465 0.07072,0.399228 -0.269947,1.046729 -0.06736,0.128028 -0.01783,0.58764 0.124153,1.15208 0.07101,0.282276 0.09055,0.43237 0.07221,0.554656 -0.03315,0.221068 -0.24054,0.627369 -0.449284,0.880205 -0.0922,0.111671 -0.203708,0.301982 -0.247802,0.422913 -0.05882,0.161313 -0.121406,0.252625 -0.234999,0.342843 -0.293631,0.233208 -0.352887,0.318946 -0.517807,0.749219 -0.143229,0.37368 -0.189623,0.452642 -0.374222,0.636921 -0.30443,0.303902 -0.610937,0.441935 -1.015868,0.457491 l -0.315734,0.01213 z"
     style="fill:#ffffff;stroke-width:0.0376471" />
  <path
     id="path78"
     d="m 25.920671,23.209412 c -0.224288,-0.397015 -0.238859,-0.491727 -0.13624,-0.885546 0.158227,-0.607224 0.08623,-0.920781 -0.273771,-1.192377 -0.318904,-0.240588 -0.471597,-0.387306 -0.540892,-0.519724 -0.05778,-0.110421 -0.07832,-0.427767 -0.03249,-0.501932 0.01269,-0.02053 0.03342,-0.180178 0.04607,-0.354774 0.0196,-0.27051 0.01162,-0.343192 -0.05402,-0.491578 -0.119563,-0.270291 -0.373079,-0.49028 -0.732024,-0.635215 -0.214318,-0.08654 -0.362462,-0.176616 -0.483756,-0.294148 -0.154995,-0.150188 -0.179557,-0.196881 -0.216445,-0.41147 -0.02289,-0.133132 -0.0631,-0.255696 -0.08936,-0.272365 -0.03763,-0.02388 -0.03691,-0.03043 0.0034,-0.03088 0.03704,-4.18e-4 0.04386,-0.02911 0.02472,-0.104106 -0.01453,-0.05694 -0.03406,-0.154353 -0.0434,-0.21647 -0.0093,-0.06212 -0.02379,-0.158746 -0.03212,-0.21473 -0.03683,-0.247495 -0.28587,-0.424985 -0.64639,-0.460679 -0.663736,-0.06571 -0.885646,-0.216527 -1.029537,-0.699687 -0.04528,-0.152028 -0.105985,-0.276484 -0.145073,-0.297403 -0.03697,-0.01978 -0.275125,-0.08846 -0.529237,-0.152615 -0.309726,-0.07819 -0.585766,-0.17874 -0.837422,-0.305027 -0.39413,-0.197784 -0.389376,-0.196796 -1.145858,-0.237925 -0.167717,-0.0091 -0.37608,-0.03574 -0.463028,-0.05915 -0.08695,-0.02341 -0.195094,-0.03082 -0.240324,-0.01647 -0.147144,0.0467 -0.466046,0.02501 -0.605543,-0.04118 -0.150948,-0.07163 -0.348591,-0.278001 -0.402805,-0.420595 -0.05309,-0.139636 -0.04214,-0.44959 0.02125,-0.601287 0.09957,-0.238297 0.488613,-0.574712 0.961167,-0.831136 0.23753,-0.128892 0.482697,-0.269005 0.544815,-0.311361 0.06212,-0.04236 0.282353,-0.128741 0.489412,-0.191966 0.207059,-0.06323 0.401882,-0.124716 0.432941,-0.136647 0.03106,-0.01193 0.08497,-0.02734 0.119796,-0.03424 0.03483,-0.0069 0.19577,-0.06581 0.357647,-0.130909 0.340749,-0.137039 0.514638,-0.181867 0.802557,-0.206893 0.412634,-0.03587 0.509871,-0.05785 0.829197,-0.18743 0.134059,-0.0544 0.256191,-0.118289 0.271403,-0.141972 0.01972,-0.0307 0.02782,-0.02906 0.02823,0.0057 3.96e-4,0.03334 0.05126,0.04656 0.160577,0.04175 0.088,-0.0039 0.227764,0.01149 0.310588,0.03414 0.08282,0.02265 0.192941,0.04958 0.244706,0.05985 0.19261,0.03821 0.264582,0.05638 0.29314,0.07403 0.02698,0.01667 0.222111,0.04636 0.524375,0.07979 0.319284,0.03531 0.483595,0.119045 0.627989,0.320031 0.102818,0.143115 0.157558,0.18424 0.273297,0.205323 0.231899,0.04224 1.105832,0.318336 1.317384,0.41619 0.246905,0.114206 0.562707,0.410424 1.143918,1.07298 0.254322,0.289916 0.485665,0.52712 0.514096,0.52712 0.02843,0 0.06141,0.02531 0.07328,0.05625 0.01187,0.03094 0.03749,0.04642 0.05694,0.03441 0.01944,-0.01202 0.05579,-0.0057 0.08076,0.01411 0.02498,0.01978 0.134038,0.05673 0.242362,0.08212 0.228165,0.05348 0.471125,0.216362 0.573264,0.384315 0.0762,0.125306 0.104844,0.286979 0.135569,0.765262 0.06249,0.972736 0.05595,0.94695 0.296373,1.169198 0.354983,0.328152 0.375303,0.511698 0.117304,1.05955 -0.188171,0.399576 -0.196663,0.460938 -0.121396,0.877135 0.0094,0.05176 0.02778,0.153411 0.04094,0.225882 0.01315,0.07247 0.05192,0.258823 0.08614,0.414118 0.03423,0.155294 0.06145,0.336717 0.06051,0.403164 -0.0022,0.154767 -0.23706,0.650184 -0.428357,0.903585 -0.08145,0.107888 -0.20082,0.306559 -0.265273,0.441491 -0.08218,0.172049 -0.17726,0.296652 -0.318304,0.417149 -0.202498,0.172999 -0.252005,0.255838 -0.545558,0.912853 -0.24435,0.546892 -0.723922,0.850027 -1.39923,0.884444 l -0.178121,0.0091 z"
     style="fill:#000000;stroke-width:0.0376471" />
  <path
     id="path80"
     d="m 25.918571,23.103376 -0.179198,-0.360978 0.0809,-0.39701 c 0.160409,-0.787172 0.117943,-0.90629 -0.515719,-1.446608 -0.351342,-0.299586 -0.367688,-0.349715 -0.30727,-0.942286 0.0462,-0.453146 0.04484,-0.501865 -0.01869,-0.668223 -0.103165,-0.270133 -0.365078,-0.507567 -0.777388,-0.704733 -0.447673,-0.214077 -0.575431,-0.344487 -0.66937,-0.683262 -0.03966,-0.143034 -0.06575,-0.270351 -0.05798,-0.282927 0.03293,-0.05329 -0.101615,-0.665312 -0.165201,-0.751467 -0.111916,-0.151637 -0.281565,-0.227627 -0.634266,-0.284102 -0.623723,-0.09987 -0.802478,-0.226485 -0.951348,-0.67384 -0.05028,-0.151078 -0.11514,-0.269835 -0.164241,-0.300703 -0.04463,-0.02806 -0.275539,-0.104548 -0.513124,-0.169978 -0.237586,-0.06543 -0.620472,-0.202408 -0.850858,-0.304395 -0.408598,-0.180879 -0.432136,-0.186429 -0.958704,-0.22605 -0.296901,-0.02234 -0.556367,-0.05085 -0.57659,-0.06334 -0.02022,-0.0125 -0.199123,-0.0201 -0.397557,-0.01689 -0.198433,0.0032 -0.414486,-0.01185 -0.480117,-0.03347 -0.166743,-0.05492 -0.415978,-0.336104 -0.447674,-0.505055 -0.09291,-0.495266 0.198698,-0.842051 1.176906,-1.399587 0.395844,-0.225614 0.621816,-0.323901 1.110588,-0.483055 0.337495,-0.109895 0.709379,-0.235046 0.826409,-0.278115 0.11703,-0.04307 0.337266,-0.0966 0.489412,-0.11896 0.561299,-0.08249 0.733465,-0.121264 0.954277,-0.214923 0.27868,-0.118205 0.496758,-0.116301 1.003373,0.0088 0.199856,0.04933 0.503109,0.108832 0.673897,0.132216 0.420123,0.05752 0.565805,0.123295 0.745738,0.336686 0.113714,0.134858 0.188441,0.187844 0.292434,0.207353 0.316561,0.05939 1.2887,0.401927 1.456935,0.513362 0.09853,0.06526 0.38593,0.340991 0.638675,0.612733 0.867827,0.933058 0.871281,0.936004 1.231301,1.050212 0.334937,0.106251 0.564815,0.259132 0.655157,0.435713 0.06624,0.129484 0.08795,0.280373 0.138622,0.963691 0.02294,0.309306 0.05757,0.604117 0.07697,0.655137 0.0194,0.05102 0.127774,0.192679 0.240837,0.314801 0.304929,0.329359 0.311865,0.430967 0.06793,0.995232 -0.176163,0.407505 -0.18123,0.592828 -0.03572,1.306086 0.0542,0.265672 0.09855,0.537209 0.09855,0.603415 0,0.142157 -0.200217,0.574897 -0.407275,0.880265 -0.08085,0.119245 -0.193064,0.307866 -0.249354,0.419158 -0.05629,0.111293 -0.209202,0.316123 -0.339802,0.455178 -0.186178,0.198233 -0.286392,0.354239 -0.464078,0.722445 -0.189084,0.391827 -0.261521,0.501511 -0.437301,0.662164 -0.251951,0.23027 -0.534775,0.346768 -0.912129,0.375716 l -0.268762,0.02062 z"
     style="fill:#000000;stroke-width:0.0376471" />
</svg>
