<?xml version="1.0" encoding="UTF-8" standalone="no"?>
<svg
   xmlns:dc="http://purl.org/dc/elements/1.1/"
   xmlns:cc="http://creativecommons.org/ns#"
   xmlns:rdf="http://www.w3.org/1999/02/22-rdf-syntax-ns#"
   xmlns:svg="http://www.w3.org/2000/svg"
   xmlns="http://www.w3.org/2000/svg"
   xmlns:sodipodi="http://sodipodi.sourceforge.net/DTD/sodipodi-0.dtd"
   xmlns:inkscape="http://www.inkscape.org/namespaces/inkscape"
   inkscape:version="1.0 (4035a4fb49, 2020-05-01)"
   sodipodi:docname="fast-forward.svg"
   xml:space="preserve"
   style="enable-background:new 0 0 192.689 192.689;"
   viewBox="0 0 192.689 192.689"
   y="0px"
   x="0px"
   id="Capa_1"
   version="1.1"><metadata
   id="metadata56"><rdf:RDF><cc:Work
       rdf:about=""><dc:format>image/svg+xml</dc:format><dc:type
         rdf:resource="http://purl.org/dc/dcmitype/StillImage" /><dc:title></dc:title></cc:Work></rdf:RDF></metadata><defs
   id="defs54" /><sodipodi:namedview
   inkscape:current-layer="Capa_1"
   inkscape:window-maximized="1"
   inkscape:window-y="-8"
   inkscape:window-x="1912"
   inkscape:cy="96.344498"
   inkscape:cx="96.344498"
   inkscape:zoom="4.4112535"
   showgrid="false"
   id="namedview52"
   inkscape:window-height="1017"
   inkscape:window-width="1920"
   inkscape:pageshadow="2"
   inkscape:pageopacity="0"
   guidetolerance="10"
   gridtolerance="10"
   objecttolerance="10"
   borderopacity="1"
   bordercolor="#666666"
   pagecolor="#ffffff" />
<g
   id="g19">
	<g
   id="Double_Chevron_Right">
		<path
   id="path2"
   d="M188.527,87.755l-83.009-84.2c-4.692-4.74-12.319-4.74-17.011,0c-4.704,4.74-4.704,12.439,0,17.179l74.54,75.61    l-74.54,75.61c-4.704,4.74-4.704,12.439,0,17.179c4.704,4.74,12.319,4.74,17.011,0l82.997-84.2    C193.05,100.375,193.062,92.327,188.527,87.755z" />
		<path
   id="path4"
   d="M104.315,87.755l-82.997-84.2c-4.704-4.74-12.319-4.74-17.011,0c-4.704,4.74-4.704,12.439,0,17.179l74.528,75.61    l-74.54,75.61c-4.704,4.74-4.704,12.439,0,17.179s12.319,4.74,17.011,0l82.997-84.2C108.838,100.375,108.85,92.327,104.315,87.755    z" />
	</g>
	<g
   id="g7">
	</g>
	<g
   id="g9">
	</g>
	<g
   id="g11">
	</g>
	<g
   id="g13">
	</g>
	<g
   id="g15">
	</g>
	<g
   id="g17">
	</g>
</g>
<g
   id="g21">
</g>
<g
   id="g23">
</g>
<g
   id="g25">
</g>
<g
   id="g27">
</g>
<g
   id="g29">
</g>
<g
   id="g31">
</g>
<g
   id="g33">
</g>
<g
   id="g35">
</g>
<g
   id="g37">
</g>
<g
   id="g39">
</g>
<g
   id="g41">
</g>
<g
   id="g43">
</g>
<g
   id="g45">
</g>
<g
   id="g47">
</g>
<g
   id="g49">
</g>
<path
   id="path58"
   d="M 12.128072,192.51997 C 9.1327243,192.27475 6.5872059,191.11225 4.5008434,189.03671 0.51253001,185.06909 -0.21188136,179.085 2.7120886,174.26047 3.23501,173.39765 15.274107,161.03139 41.181172,134.74597 61.920557,113.7037 78.889142,96.422367 78.889142,96.343002 c 0,-0.07936 -16.97331,-17.367817 -37.718465,-38.418788 C 17.022435,33.419991 3.1972611,19.229057 2.7435789,18.480485 -0.20527045,13.614906 0.5090378,7.6231512 4.5127445,3.6403841 6.8619222,1.3034929 9.5201832,0.20150483 12.808151,0.20150483 c 2.050884,0 3.397131,0.30941258 5.283081,1.21422897 1.90983,0.9162725 0.990417,0.00439 41.771327,41.4292312 17.490876,17.767059 34.872965,35.415104 38.626862,39.217878 7.246629,7.340986 7.769429,8.006393 8.638159,10.994607 0.51856,1.783722 0.51856,4.790373 0,6.574095 -0.92101,3.168025 -0.88397,3.125265 -15.903271,18.362125 -7.742749,7.85491 -26.832342,27.22484 -42.421317,43.04429 -15.588975,15.81944 -28.84098,29.09242 -29.4489,29.49551 -1.982194,1.31431 -5.069527,2.16305 -7.22602,1.9865 z"
   style="fill:#ffffff;stroke-width:0.226693" /><path
   id="path60"
   d="m 93.578322,192.0246 c -2.621775,-0.83828 -4.99312,-2.67972 -6.56752,-5.09992 -2.739688,-4.21152 -2.401317,-10.08709 0.801693,-13.92084 0.439033,-0.52549 17.559575,-17.95417 38.045655,-38.7304 20.48608,-20.77622 37.24742,-37.844565 37.24742,-37.929645 0,-0.08508 -16.76301,-17.155101 -37.25112,-37.933381 C 105.36633,37.632134 88.245784,20.203773 87.808789,19.680724 84.827778,16.112686 84.320094,10.846226 86.535323,6.4704309 c 0.318292,-0.6287308 1.303911,-1.8683442 2.190263,-2.7546961 2.490491,-2.4904914 4.870572,-3.48904186 8.316257,-3.48904186 2.415662,0 4.344437,0.5478961 6.238627,1.77217246 0.94852,0.6130557 12.96283,12.6522106 40.44834,40.5319686 49.90678,50.622641 45.8141,46.404749 46.66746,48.095232 1.82712,3.619511 1.82636,7.812932 -0.002,11.444754 -0.54317,1.07889 -1.58258,2.30198 -4.38077,5.15494 -9.26136,9.44261 -67.20228,68.25292 -73.89607,75.00485 -4.45648,4.49519 -8.04373,7.92232 -8.84237,8.44766 -0.7391,0.48617 -1.99949,1.08647 -2.80087,1.33399 -1.90513,0.58844 -5.076281,0.59411 -6.895794,0.0123 z"
   style="fill:#ffffff;stroke-width:0.226693" /></svg>
