<?xml version="1.0" encoding="UTF-8" standalone="no"?>
<svg
   xmlns:dc="http://purl.org/dc/elements/1.1/"
   xmlns:cc="http://creativecommons.org/ns#"
   xmlns:rdf="http://www.w3.org/1999/02/22-rdf-syntax-ns#"
   xmlns:svg="http://www.w3.org/2000/svg"
   xmlns="http://www.w3.org/2000/svg"
   xmlns:sodipodi="http://sodipodi.sourceforge.net/DTD/sodipodi-0.dtd"
   xmlns:inkscape="http://www.inkscape.org/namespaces/inkscape"
   sodipodi:docname="menu-icon-dark.svg"
   inkscape:version="1.0 (4035a4fb49, 2020-05-01)"
   width="100.0px"
   height="100.0px"
   viewBox="0 0 100.0 100.0"
   version="1.1"
   id="SVGRoot">
  <defs
     id="defs93" />
  <sodipodi:namedview
     inkscape:window-maximized="1"
     inkscape:window-y="-8"
     inkscape:window-x="1912"
     inkscape:window-height="1017"
     inkscape:window-width="1920"
     showgrid="true"
     inkscape:document-rotation="0"
     inkscape:current-layer="layer1"
     inkscape:document-units="px"
     inkscape:cy="65.835472"
     inkscape:cx="43.215329"
     inkscape:zoom="5.6"
     inkscape:pageshadow="2"
     inkscape:pageopacity="0.0"
     borderopacity="1.0"
     bordercolor="#666666"
     pagecolor="#ffffff"
     id="base">
    <inkscape:grid
       type="xygrid"
       id="grid102" />
  </sodipodi:namedview>
  <metadata
     id="metadata96">
    <rdf:RDF>
      <cc:Work
         rdf:about="">
        <dc:format>image/svg+xml</dc:format>
        <dc:type
           rdf:resource="http://purl.org/dc/dcmitype/StillImage" />
        <dc:title></dc:title>
      </cc:Work>
    </rdf:RDF>
  </metadata>
  <g
     id="layer1"
     inkscape:groupmode="layer"
     inkscape:label="Layer 1">
    <path
       style="fill:#ffffff;stroke-width:0.102138;opacity:1;stroke:#000000;stroke-opacity:1"
       d="M 9.9471484,85.20421 C 8.4742066,85.102902 7.2224633,84.623059 6.1965063,83.766222 4.235277,82.128307 3.8790521,79.657936 5.3169,77.66625 5.5740384,77.310064 11.494192,72.204975 24.233831,61.353743 34.432295,52.666982 42.776492,45.532848 42.776492,45.500084 c 0,-0.03276 -8.346519,-7.169837 -18.547822,-15.860174 C 12.353922,19.52399 5.5554783,13.665639 5.3323847,13.35661 3.8823045,11.347986 4.2335591,8.874443 6.2023597,7.230268 7.3575519,6.265541 8.6647372,5.810615 10.281573,5.810615 c 1.008512,0 1.670519,0.12774 2.597923,0.501266 0.939149,0.378259 0.487033,0.0017 20.540793,17.10296 8.60103,7.334653 17.148565,14.620187 18.994518,16.190058 3.563489,3.030529 3.820571,3.305236 4.247765,4.538833 0.255001,0.736359 0.255001,1.977576 0,2.713952 -0.452901,1.30782 -0.434688,1.290172 -7.820341,7.58031 -3.807444,3.242698 -13.194634,11.239054 -20.860415,17.769695 -7.665783,6.530636 -14.182376,12.010038 -14.481318,12.176438 -0.97473,0.542584 -2.492905,0.892967 -3.5533496,0.820083 z"
       id="path58" />
    <path
       style="fill:#ffffff;stroke-width:0.102138;opacity:1;stroke:#000000;stroke-opacity:1"
       d="m 49.999806,84.999703 c -1.28924,-0.346077 -2.455338,-1.106249 -3.229539,-2.105355 -1.347223,-1.738623 -1.180832,-4.164208 0.39423,-5.746869 0.21589,-0.216933 8.634814,-7.411893 18.708716,-15.988803 10.073904,-8.576928 18.31619,-15.623148 18.31619,-15.658265 0,-0.03509 -8.243106,-7.082024 -18.318011,-15.659789 C 55.796488,21.262857 47.377564,14.068018 47.162672,13.852096 45.696781,12.379127 45.447131,10.205009 46.536456,8.398578 c 0.156509,-0.259556 0.641189,-0.7713 1.077048,-1.137205 1.224683,-1.028135 2.395075,-1.440357 4.089468,-1.440357 1.187887,0 2.136348,0.226183 3.067806,0.731594 0.466428,0.253083 6.374392,5.223132 19.890221,16.732548 24.541343,20.898222 22.528794,19.156969 22.948442,19.854852 0.898474,1.494209 0.898092,3.225354 -8.31e-4,4.724663 -0.267084,0.445396 -0.778226,0.950297 -2.154217,2.128071 -4.554217,3.898136 -33.046305,28.176419 -36.337938,30.963763 -2.191443,1.855734 -3.95545,3.270532 -4.348178,3.487388 -0.36345,0.200715 -0.98324,0.448533 -1.377317,0.550705 C 52.454128,85.237532 50.894733,85.239881 50,85 Z"
       id="path60" />
  </g>
</svg>
